<?xml version="1.0" encoding="UTF-8" standalone="no"?>
<svg
   xmlns:dc="http://purl.org/dc/elements/1.1/"
   xmlns:cc="http://creativecommons.org/ns#"
   xmlns:rdf="http://www.w3.org/1999/02/22-rdf-syntax-ns#"
   xmlns:svg="http://www.w3.org/2000/svg"
   xmlns="http://www.w3.org/2000/svg"
   xmlns:sodipodi="http://sodipodi.sourceforge.net/DTD/sodipodi-0.dtd"
   xmlns:inkscape="http://www.inkscape.org/namespaces/inkscape"
   height="265.49695"
   width="604.91602"
   inkscape:version="1.0 (4035a4fb49, 2020-05-01)"
   sodipodi:docname="flex-basic-terminology.svg"
   id="svg36"
   version="1.1"
   viewBox="0 0 604.91602 265.49695">
  <metadata
     id="metadata42">
    <rdf:RDF>
      <cc:Work
         rdf:about="">
        <dc:format>image/svg+xml</dc:format>
        <dc:type
           rdf:resource="http://purl.org/dc/dcmitype/StillImage" />
        <dc:title></dc:title>
      </cc:Work>
    </rdf:RDF>
  </metadata>
  <defs
     id="defs40" />
  <sodipodi:namedview
     fit-margin-bottom="0"
     fit-margin-right="0"
     fit-margin-left="0"
     fit-margin-top="0"
     inkscape:current-layer="svg36"
     inkscape:window-maximized="0"
     inkscape:window-y="0"
     inkscape:window-x="0"
     inkscape:cy="146.89616"
     inkscape:cx="302.49723"
     inkscape:zoom="1.2181521"
     showgrid="false"
     id="namedview38"
     inkscape:window-height="868"
     inkscape:window-width="1678"
     inkscape:pageshadow="2"
     inkscape:pageopacity="0"
     guidetolerance="10"
     gridtolerance="10"
     objecttolerance="10"
     borderopacity="1"
     bordercolor="#666666"
     pagecolor="#ffffff" />
  <path
     id="path2"
     fill="#cecece"
     d="m 499.57905,128.44973 a 12.54,12.54 0 0 0 0.32,-7 c 3.33,-5 5.08,-11.4 3.69,-15.4 a 85.31,85.31 0 0 1 -3.95,-16 116.06,116.06 0 0 0 0.08,-22 10.05,10.05 0 0 0 -1.79,-5.26 c 2.58,-4.85 4.9,-12.45 1.5,-17.26 a 7.06,7.06 0 0 0 -1.89,-1.89 c 4.4,-5.87 9.76,-22.82 -3,-21.19 -15.13,1.93 -30.52,-0.85 -45.45,-3.15 a 277.21,277.21 0 0 0 -44.75,-3.59 c -30.26,0.28 -60.43,4.24 -90.63,5.82 -61.64,3.24 -123.32,2.19 -184.95,1.4 -34.049997,-0.44 -68.099997,-0.77 -102.159997,-0.31 -2.84,-0.24 -5.69,-0.51 -8.53,-0.81 -10.9200002,-1.18 -22.2600002,23.09 -12.2700002,27 a 22.89,22.89 0 0 0 -5.32999998,13.7 c -0.29,6.2 2.84999998,9.65 7.19999998,11.73 a 22.16,22.16 0 0 0 -6.14,11.68 124.1,124.1 0 0 0 1.68,47.46 6.23,6.23 0 0 0 5.25,4.78 l 1.53,0.06 c -4,3.95 -7.34,9 -7.72,14.78 -0.25,3.92 0.76,8.83 5.51,9.38 29.4900002,3.43 59.1700002,2.46 88.8200002,1.82 32.419997,-0.71 64.839997,-1.88 97.279997,-2.25 31.71,-0.35 63.45,0.08 95.09,2.49 16.33,1.25 32.53,2.52 48.93,2.51 15.67,0 31.34,-0.54 47,-1.14 17.63,-0.68 35.27,-1.51 52.92,-1.25 17.65,0.26 35.13,2.44 52.53,-1.35 9,-1.95 14.54,-14.13 13,-22.43 a 57.77,57.77 0 0 0 -3.77,-12.33 z m -188.77,-76 h -10.62 l 2.7,-0.13 c 16.81,-0.73 33.66,-1 50.47,-0.2 6,0.29 12,0.75 18,1.32 q -30.29,-0.85 -60.55,-0.95 z m -200.46,86.83 h 0.27 a 1.14,1.14 0 0 1 -0.36,0 z" />
  <path
     id="path4"
     fill="#1e1e1e"
     d="m 500.56905,136.03973 q -0.22,-17 -0.47,-33.92 c -0.3,-21.34 -1,-42.73 -0.87,-64.08 0,-5.8 1.55,-13.42 -5,-16.31 -4.27,-1.88 -9.84,-1.12 -14.39,-1.24 -3,-0.08 -6,-0.21 -9.05,-0.24 h -353.97 c -26.879997,0 -53.749997,0.12 -80.629997,0.06 -6.18,0 -12.38,-0.18 -18.56,0.17 -3.37,0.19 -7.41,0.39 -10.0700002,2.75 -3.38,3 -2.25,7.14 -2.37,11.17 a 0.53,0.53 0 0 0 0,0.18 q -0.12,28.7 -0.38,57.26 l -0.28,38 c -0.05,7.59 -0.78,16 0.53,23.46 1.49,8.42 12.2800002,8.29 19.0000002,8.68 8.55,0.48 17.19,-0.06 25.76,0.19 2.44,0.07 4.9,0 7.34,0 h 42.07 q 74.899997,0 149.799997,-0.33 l 155.61,-0.39 49.35,-0.13 h 12.15 c 8.76,0 18.19,0.84 26.73,-1 8.54,-1.84 7.62,-10.11 7.8,-17.46 0.05,-2.35 -0.07,-4.58 -0.1,-6.82 z m -2.16,6.76 c -0.06,2 -0.27,4 -0.41,6 -0.31,4.53 -1,8.09 -5.74,9.22 -6.37,1.49 -13.71,0.74 -20.22,0.87 -2.77,0.06 -5.52,0.08 -8.29,0.09 l -36.52,0.08 -140.83,0.35 -155.95,0.41 c -26.73,0.08 -53.649997,1.19 -80.369997,0.32 -5.38,-0.18 -10.61,-0.35 -16,-0.11 a 90.85,90.85 0 0 1 -18.57,-0.87 c -3.41,-0.56 -7.1400002,-1.4 -8.3900002,-5.09 -1.07,-3.2 -0.78,-7.45 -0.86,-10.82 -0.13,-5.66 0,-11.34 0.06,-17 q 0.15,-37.77 0.28,-75.54 c 0,-5.38 0,-10.75 0.06,-16.13 v -0.13 c 0.16,-3.86 -0.92,-8.3 3,-10.68 2.7100002,-1.59 6.4100002,-1.42 9.4100002,-1.49 5.59,-0.16 11.19,-0.07 16.79,-0.05 h 55.5 l 146.999997,0.05 h 154.31 c 25.91,0 51.85,-0.26 77.76,0 5.49,0.06 11,0.19 16.5,0.44 5.88,0.26 10.12,1.87 10.3,8.3 0.06,2.16 -0.2,4.32 -0.22,6.48 v 1.71 c 0.06,8.62 0.23,17.24 0.34,25.86 l 0.92,72.11 c 0.09,1.94 0.19,3.79 0.14,5.62 z" />
  <path
     id="path8"
     fill="#b81414"
     d="m 523.25905,75.44973 a 3.87,3.87 0 0 0 -4.24,1 2.45,2.45 0 0 0 -1.08,-1.15 3.85,3.85 0 0 0 -4,0.69 3.14,3.14 0 0 0 -0.24,-0.57 0.25,0.25 0 0 0 -0.46,0.06 10.4,10.4 0 0 0 -0.15,3.57 c 0,1.37 -0.06,2.73 0,4.1 a 0.57,0.57 0 0 0 1.13,0 32.17,32.17 0 0 0 0.06,-4.39 v -1.11 a 5,5 0 0 1 0.9,-0.81 c 1.21,-0.74 2.6,-0.4 2.78,1.12 0.19,1.68 -0.08,3.49 0,5.19 a 0.79,0.79 0 0 0 1.57,0 34.58,34.58 0 0 0 0,-5.19 3,3 0 0 0 -0.06,-0.4 7.77,7.77 0 0 1 1.13,-0.77 1.83,1.83 0 0 1 1.9,-0.06 c 0.75,0.43 0.76,0.85 0.82,1.72 0.09,1.54 -0.24,3.25 0.08,4.74 0.12,0.55 0.89,0.47 1,0 a 8,8 0 0 0 0.23,-2.19 18.06,18.06 0 0 0 0.07,-2.55 c -0.12,-1.17 -0.34,-2.4 -1.44,-3 z m 4.46,0.83 a 0.39,0.39 0 0 0 0.44,0.57 c 0.64,-0.08 1.17,-0.44 1.81,-0.55 a 3.44,3.44 0 0 1 2.11,0.25 c 0.43,0.3 0.56,1.21 0.63,1.68 0.07,0.47 0.07,0.72 0.09,1.08 a 4.81,4.81 0 0 0 -4.37,-0.4 2.86,2.86 0 0 0 -1.67,3.4 3.14,3.14 0 0 0 3.36,2 4.46,4.46 0 0 0 2.58,-1.24 v 0.33 c -0.06,0.93 1.45,0.94 1.45,0 0,-2.37 0.89,-6 -1,-7.91 -1.37,-1.38 -4.58,-0.99 -5.43,0.79 z m 3.35,6.1 c -0.85,0.49 -2.28,0.69 -2.78,-0.4 -0.66,-1.43 1.28,-2 2.28,-1.94 0.77,0.06 1.5,0.34 2.27,0.44 v 0.63 c -0.77,0.25 -1.13,0.9 -1.77,1.27 z m 5.93,-6.91 a 16.12,16.12 0 0 0 -0.26,4.17 18.72,18.72 0 0 0 0.06,4 c 0.11,0.62 1,0.56 1.2,0 a 17.15,17.15 0 0 0 0.37,-4.35 8,8 0 0 0 -0.62,-3.94 0.41,0.41 0 0 0 -0.75,0.12 z m 1.16,-3.05 a 0.74,0.74 0 0 0 -0.84,-0.34 1,1 0 0 0 -0.71,1.23 0.92,0.92 0 0 0 1.52,0.4 1,1 0 0 0 0.06,-1.21 z m -0.09,0.86 z m 0.16,-0.31 a 0.15,0.15 0 0 0 0,-0.07 z m 8.84,2.36 c -1.39,-0.92 -3.64,-0.06 -5,1.15 a 2.66,2.66 0 0 0 -0.42,-1.16 0.17,0.17 0 0 0 -0.29,0 c -0.63,1 -0.39,2.25 -0.42,3.39 a 32.47,32.47 0 0 0 0,4.52 0.74,0.74 0 0 0 1.48,0 42.64,42.64 0 0 0 -0.25,-4.52 v -0.87 c 1.36,-0.79 3.66,-2.33 4.34,-0.69 a 11.18,11.18 0 0 1 0.33,2.9 11.83,11.83 0 0 1 0,3.2 c -0.21,1.26 1.74,1.29 1.6,0.21 -0.23,-1.74 0,-3.47 -0.2,-5.21 -0.17,-0.97 -0.27,-2.32 -1.17,-2.92 z m 14.24,0.08 c -1.35,-1.51 -4.43,-0.58 -5.66,0.63 -0.27,0.27 -0.09,0.87 0.34,0.82 1.62,-0.17 4.42,-1.85 4.76,0.7 a 11.9,11.9 0 0 1 0.1,1.34 5.38,5.38 0 0 0 -3.16,-0.51 2.54,2.54 0 0 0 -2.43,2.62 c 0.18,2.82 3.44,3.09 5.37,1.76 v 0.2 c -0.07,0.94 1.42,0.94 1.47,0 a 41.46,41.46 0 0 0 0,-4.73 4.38,4.38 0 0 0 -0.79,-2.83 z m -2.56,6.73 c -0.93,0.23 -2.5,-0.2 -2.15,-1.48 0.26,-1 1.79,-0.93 2.57,-0.8 a 15.07,15.07 0 0 1 1.65,0.52 v 0.54 a 6.29,6.29 0 0 1 -2.07,1.22 z m 10.18,-2.79 c 0.72,-1 2.37,-2.4 2,-3.69 a 0.33,0.33 0 0 0 -0.31,-0.23 c -1.26,-0.05 -2,1.64 -2.71,2.57 -0.81,-1.1 -1.86,-2.72 -3.11,-2.69 a 0.21,0.21 0 0 0 -0.18,0.14 c -0.32,1.39 1.46,2.86 2.3,3.92 a 33,33 0 0 0 -2.18,3.39 c -0.37,0.68 0.58,1.52 1.12,0.86 0.73,-0.89 1.4,-1.84 2.06,-2.79 a 12.68,12.68 0 0 0 2.41,3 c 0.61,0.49 1.74,-0.17 1.19,-0.92 -0.92,-1.14 -1.7,-2.39 -2.59,-3.56 z m 4.94,-3.96 c -0.6,2.41 -0.25,5.27 -0.11,7.72 a 0.69,0.69 0 0 0 1.38,0 c 0.08,-2.46 0.34,-5.33 -0.32,-7.72 a 0.5,0.5 0 0 0 -0.95,0 z m 0.7,-1.85 a 0.78,0.78 0 0 0 0.18,-0.11 0.82,0.82 0 0 0 0.17,-0.2 0.92,0.92 0 0 0 0.11,-0.57 0.82,0.82 0 0 0 -0.11,-0.23 0.48,0.48 0 0 0 -0.15,-0.29 0.75,0.75 0 0 0 -0.55,-0.21 0.8,0.8 0 0 0 -0.44,0.19 0.78,0.78 0 0 0 -0.24,0.24 0.91,0.91 0 0 0 0,0.94 0.71,0.71 0 0 0 1.03,0.24 z m -0.17,-0.4 a 0.54,0.54 0 0 0 0.21,0 z m 9.12,7.73 c -0.36,-1.53 -1.88,-2.07 -3.25,-2.37 -1,-0.21 -2.21,-0.32 -1.81,-1.65 0.53,-1.73 3.16,-0.94 4.08,-0.21 a 0.45,0.45 0 0 0 0.74,-0.43 c -0.48,-2.82 -5.68,-2 -6,0.71 a 2.08,2.08 0 0 0 1.12,2.38 c 0.89,0.46 2,0.4 2.88,0.88 1.3,0.71 0.32,2.27 -0.89,2.3 a 3.38,3.38 0 0 1 -2.27,-0.62 c -0.71,-0.53 -1.39,0.66 -0.7,1.19 1.79,1.37 6.89,1.11 6.1,-2.18 z m -335.12,159.75 c 1.76,2.07 -0.69,4.23 -2.8,4 -2.28,-0.2 -4.28,-2.23 -2.55,-4.34 0.3,-0.38 0,-1.14 -0.54,-0.92 a 2.8,2.8 0 0 0 -1.45,3.53 5,5 0 0 0 4.36,3.1 c 3.48,0.36 6.6,-3.4 3.94,-6.37 -0.59,-0.62 -1.53,0.34 -0.96,1 z m -6.95,-4.1 c 0.9,0.85 2.35,0.5 3.51,0.49 a 36.26,36.26 0 0 0 4.78,-0.21 c 0.85,-0.13 0.56,-1.35 -0.19,-1.42 a 36.32,36.32 0 0 0 -4.89,0.14 h -0.79 l -0.6,-0.89 a 8.23,8.23 0 0 1 -0.46,-0.74 6.4,6.4 0 0 1 -0.31,-1 0.62,0.62 0 0 0 -1.18,0 2.36,2.36 0 0 0 0.7,2.18 7,7 0 0 0 0.53,0.58 2.06,2.06 0 0 0 -1.1,0.59 0.23,0.23 0 0 0 0,0.28 z m 1.7,-5.89 c 1.86,1.1 4.91,0.62 6.06,-1.3 a 3.85,3.85 0 0 0 -1.56,-5.28 c -1.82,-1 -5,-0.83 -5.82,1.33 a 0.62,0.62 0 0 0 0,0.35 c -1.7,1.09 0.04,4.15 1.32,4.9 z m 0,-4.69 a 3,3 0 0 1 4.26,-0.37 2.34,2.34 0 0 1 -0.11,3.67 3.26,3.26 0 0 1 -4.22,-0.62 c -0.54,-0.76 -0.36,-1.58 -0.49,-2.37 a 0.75,0.75 0 0 0 0.57,-0.31 z m -0.59,-11 c -2.47,0.55 -1.78,5.14 0.09,6.08 1.17,0.59 1.92,-0.48 2.29,-1.47 0.37,-0.99 0.32,-2.17 0.94,-3 1.81,-2.37 4,2.45 1.8,3 -1,0.25 -0.49,1.83 0.41,1.47 2.85,-1.14 2.1,-6.57 -1.09,-6.59 -1.8,0 -2.49,1.77 -2.76,3.26 a 12.33,12.33 0 0 1 -0.25,1.35 c -0.05,0.63 -0.4,0.91 -1.06,0.86 a 2.45,2.45 0 0 1 -0.53,-1.07 3.6,3.6 0 0 1 0.73,-3.17 c 0.29,-0.38 -0.18,-0.8 -0.57,-0.72 z m 0.87,-1.92 c 1.64,0.17 2,-1.78 2.53,-3 0.38,-0.8 1.38,-2.87 2.39,-1.46 0.87,1.23 -0.4,2.35 -0.94,3.3 -0.28,0.49 0.19,1.22 0.78,1 2.5,-0.9 2.77,-6.49 -0.33,-6.62 -1.6,-0.06 -2.64,1.75 -3.21,3 -0.2,0.42 -0.36,0.85 -0.55,1.27 -0.28,0.64 -0.43,1.1 -1.13,0.48 -1.21,-1.08 -0.27,-2.69 0.13,-3.86 a 0.54,0.54 0 0 0 -0.78,-0.6 c -2.25,1.46 -1.91,6.19 1.11,6.49 z m -1.03,-14.12 a 0.28,0.28 0 0 0 0.41,-0.24 18.65,18.65 0 0 0 -0.53,-2.3 1.91,1.91 0 0 1 0.78,-2.16 3.7,3.7 0 0 1 1.49,0 l 0.9,0.07 a 5.17,5.17 0 0 0 -0.7,3.17 2.65,2.65 0 0 0 2.7,2.56 c 1.68,0.1 2.5,-0.86 2.88,-2.41 a 4.56,4.56 0 0 0 -0.68,-3.43 3,3 0 0 0 0.32,-0.12 c 0.73,-0.33 0.21,-1.56 -0.54,-1.29 -2.35,0.84 -6,-1.25 -8,0.73 -1.36,1.38 -0.54,4.39 0.97,5.42 z m 6.43,-0.77 c -0.32,0.65 -0.85,0.68 -1.45,0.62 -1.2,-0.13 -1.48,-0.93 -1.51,-2 a 3.42,3.42 0 0 1 0.57,-2.41 c 0.42,0 0.84,0.06 1.26,0.07 0.39,0.68 1.09,1.2 1.3,2 a 3,3 0 0 1 -0.17,1.72 z m 0.96,-13.55 a 0.66,0.66 0 0 0 -0.64,-1.09 9.67,9.67 0 0 0 -3.78,2.37 13.58,13.58 0 0 0 -3.42,-2 c -0.5,-0.19 -0.86,0.52 -0.51,0.87 a 24.07,24.07 0 0 0 2.75,2.17 c -1,0.72 -2.85,1.51 -2.68,2.88 0,0.14 0.11,0.3 0.28,0.28 a 3.45,3.45 0 0 0 1.53,-0.81 c 0.65,-0.42 1.36,-0.7 2,-1.18 l 0.21,-0.19 a 43,43 0 0 0 3.41,2.67 c 0.62,0.4 1.11,-0.45 0.72,-0.94 a 16,16 0 0 0 -2.95,-2.72 c 0.27,-0.23 0.53,-0.46 0.82,-0.67 a 14.23,14.23 0 0 0 2.26,-1.64 z m -0.53,-5.17 c -1.6,0 -3.19,-0.12 -4.79,-0.07 -0.92,0 -2.15,-0.14 -2.67,0.75 a 0.17,0.17 0 0 0 0,0.18 c 0.65,0.84 1.95,0.53 2.92,0.55 q 2.2,0.06 4.41,0.18 c 0.94,0.15 1.33,-1.55 0.13,-1.59 z m -10.26,0.31 h -0.08 a 0.54,0.54 0 0 0 -0.57,0.44 v 0.05 c -0.13,0.43 0.22,0.71 0.58,0.85 0.36,0.14 0.6,-0.14 0.71,-0.4 a 0.76,0.76 0 0 0 0,-0.47 0.64,0.64 0 0 0 -0.64,-0.47 z m 3.91,-2.44 a 2.73,2.73 0 0 0 2.85,-1.41 c 0.4,-0.7 0.64,-2.49 1.29,-2.86 0.65,-0.37 1.31,0.37 1.55,0.95 a 2.39,2.39 0 0 1 -0.47,2.78 c -0.66,0.68 0.39,1.73 1,1 a 3.94,3.94 0 0 0 1,-3.85 c -0.32,-1.18 -1.23,-2.67 -2.61,-2.63 -1.38,0.04 -2.05,1.29 -2.41,2.46 a 11.44,11.44 0 0 1 -0.34,1.18 c -0.44,1 -1.75,2.24 -2.44,0.16 a 3.51,3.51 0 0 1 0.61,-2.9 c 0.35,-0.45 -0.33,-1.11 -0.78,-0.78 -1.55,1.21 -1.49,5.45 0.75,5.9 z" />
  <path
     id="path12"
     fill="#1e1e1e"
     d="m 15.693838,3.6093014 a 5.59,5.59 0 0 0 -1.08,-0.05 c 0.55,-1.42 1.3,-2.4 2.35,-2.17 0.59,0.13 1,-0.71000004 0.43,-1.00000004 -2.11,-1.1 -3.42,0.68000004 -4.25,3.13000004 a 8.32,8.32 0 0 0 -1.41,-0.06 0.52,0.52 0 0 0 -0.26,1 5.61,5.61 0 0 0 1.26,0.5 47.32,47.32 0 0 0 -1,6.3499996 c -0.1,1 1.4,1 1.49,0 a 43,43 0 0 1 0.9,-6.1199996 5.28,5.28 0 0 0 1.57,-0.12 c 0.68,-0.22 0.75,-1.34 0,-1.46 z m 3.25,-3.20000004 a 81,81 0 0 0 -2.8,10.67999964 c -0.22,0.93 1.21,1.32 1.43,0.4 0.82,-3.5599996 2,-7.1699996 2.44,-10.78999964 a 0.55430136,0.55430136 0 0 0 -1.07,-0.29 z m 7.03,2.68000004 c -2.15,-0.32 -4.17,1.4 -5,3.25 a 4.22,4.22 0 0 0 1.06,5.2699996 c 1.3,0.92 3.88,1.23 5,-0.06 0.6,-0.69 -0.4,-1.6899996 -1,-1 -0.74,0.84 -2.72,0.37 -3.42,-0.27 a 2.46,2.46 0 0 1 -0.71,-1.9999996 41.21,41.21 0 0 0 6.48,-0.16 0.74,0.74 0 0 0 0.54,-0.72 c -0.05,-2.02 -0.75,-3.98 -2.95,-4.31 z m -3.68,3.74 a 2.14,2.14 0 0 1 0.1,-0.22 4,4 0 0 1 2.93,-2.14 c 1.51,-0.1 2,1.06 2.09,2.25 -1.72,0.2 -3.42,-0.02 -5.12,0.11 z m 15.4,-3.23 a 11.28,11.28 0 0 0 -3.82,2.88 12.76,12.76 0 0 0 -1.53,-3 0.54,0.54 0 0 0 -0.91,0.37 10.75,10.75 0 0 0 1.2,3.74 23.47,23.47 0 0 0 -3.07,3.3199996 c -0.52,0.71 0.56,1.41 1.15,0.89 0.95,-0.84 1.82,-1.7999996 2.7,-2.7299996 0.57,0.9999996 1.16,1.9999996 1.64,2.8899996 0.48,0.89 1.79,0.06 1.29,-0.75 a 35,35 0 0 1 -1.78,-3.2999996 0.12,0.12 0 0 1 0.05,0 c 1.17,-1.13 2.82,-2.17 3.62,-3.59 a 0.49,0.49 0 0 0 -0.54,-0.72 z m 9.41,0.07 a 6.32,6.32 0 0 0 -3.67,3.3 c -1.72,4.0499996 3.13,6.5899996 6.39,4.5999996 0.81,-0.5 0.07,-1.7799996 -0.75,-1.28 a 3.52,3.52 0 0 1 -3.47,0.09 c -1.42,-0.7599996 -1.19,-2.3599996 -0.4,-3.4899996 a 5.06,5.06 0 0 1 2.67,-1.89 4.52,4.52 0 0 1 2.67,0.23 0.46,0.46 0 0 0 0.57,-0.56 c -0.42,-1.67 -2.74,-1.46 -4.01,-1 z m 13.4,1.14 c -0.93,-1.86 -3.68,-1.9 -5.29,-0.83 -1.9,1.26 -3.52,4.35 -2.31,6.5599996 1.21,2.21 3.95,2.39 5.87,1.33 a 5.05,5.05 0 0 0 2,-6.7999996 0.74,0.74 0 0 0 -0.27,-0.26 z m -2.29,5.7199996 c -1.23,0.74 -3.27,0.74 -4,-0.6999996 -0.73,-1.44 0.44,-3.34 1.44,-4.25 a 2.85,2.85 0 0 1 3.84,-0.1 0.65,0.65 0 0 0 0.06,0.33 3.63,3.63 0 0 1 -1.34,4.7199996 z M 70.223843,3.5293014 c -1.39,-1.13 -3.51,0 -5,1.06 a 4.28,4.28 0 0 0 0,-0.62 0.5,0.5 0 0 0 -0.920005,-0.25 10.08,10.08 0 0 0 -1.07,3.33 c -0.3,1.28 -0.57,2.57 -0.83,3.8499996 -0.2,1 1.28,1.37 1.47,0.41 0.25,-1.29 0.53,-2.5699996 0.81,-3.8599996 0.08,-0.38 0.18,-0.77 0.27,-1.16 1.290005,-0.77 4.780005,-3.06 4.620005,-0.3 a 19.66,19.66 0 0 1 -1.56,5.2099996 c -0.38,1 1.31,1.51 1.64,0.46 a 38.54,38.54 0 0 0 1.29,-5.1599996 3,3 0 0 0 -0.72,-2.97 z m 6.47,-0.19 h -0.87 a 10.42,10.42 0 0 0 0.41,-1.84 0.42,0.42 0 0 0 -0.71,-0.29 7.82,7.82 0 0 0 -1.15,2.13 5.53,5.53 0 0 0 -1.52,0 0.54,0.54 0 0 0 -0.13,1 3.5,3.5 0 0 0 1.16,0.44 c -0.1,0.35 -0.2,0.69 -0.31,1 -0.44,1.46 -1.13,3.31 -0.95,4.8799996 a 1.9,1.9 0 0 0 3.58,0.74 c 0.39,-0.69 -0.47,-1.23 -1,-0.8 -1.52,1.2 -0.78,-2.3599996 -0.71,-2.6899996 0.17,-0.71 0.35,-1.41 0.56,-2.11 0.08,-0.3 0.18,-0.61 0.29,-0.91 a 9.38,9.38 0 0 0 1.58,-0.14 c 0.77,-0.11 0.59,-1.42 -0.23,-1.41 z m 5.38,0.11 c -0.43,0.33 -0.21,1.18 0.41,1 1,-0.36 2.48,-1.07 2.81,0.85 a 3.78,3.78 0 0 1 -0.31,1.52 c -2,-1.05 -6.64,0.27 -6.37,3 a 2.4,2.4 0 0 0 2.54,1.9999996 5.33,5.33 0 0 0 2.72,-1 c -0.05,0.15 -0.09,0.3 -0.14,0.45 -0.3,0.88 1.2,1.29 1.39,0.38 0.15,-0.74 0.34,-1.48 0.54,-2.2199996 a 0.47,0.47 0 0 0 0.09,-0.31 c 0.16,-0.59 0.32,-1.18 0.46,-1.78 0.23,-1 0.72,-2.28 0.4,-3.29 -0.61,-1.9 -3.31,-1.52 -4.54,-0.6 z m 2.39,5.1 a 11.43,11.43 0 0 1 -2,1.4 2.9,2.9 0 0 1 -1.53,0.4699996 c -0.84,-0.08 -1.18,-0.7299996 -0.69,-1.4199996 1,-1.42 2.94,-1.08 4.42,-1.1 -0.05,0.21 -0.11,0.41 -0.16,0.61 z m 5.4,-4.71 c -1,2.35 -1.1,5.32 -1.57,7.8299996 -0.17,0.89 1.2,1.27 1.37,0.37 0.45,-2.4699996 1.38,-5.4299996 1.13,-7.9499996 -0.04,-0.43 -0.72,-0.76 -0.93,-0.25 z m 1.1,-3.44000004 a 0.94,0.94 0 0 0 -1,1.00000004 0.74,0.74 0 0 0 0.74,0.74 0.92,0.92 0 0 0 0.28,-0.09 0.72,0.72 0 0 0 0.77,-0.71 0.89,0.89 0 0 0 -0.79,-0.94000004 z m 8.9,3.56000004 c -1.34,-1 -3.37,-0.1 -4.73,1 a 8,8 0 0 0 0,-1.2 c 0,-0.43 -0.69,-0.74 -0.92,-0.25 a 15.73,15.73 0 0 0 -0.93,4 c -0.24,1.38 -0.47,2.7599996 -0.61,4.1499996 -0.07,0.67 1,0.8 1.17,0.16 0.34,-1.4 0.58,-2.8299996 0.83,-4.2499996 0.06,-0.34 0.13,-0.69 0.2,-1 a 7.5,7.5 0 0 1 2.19,-1.14 3.15,3.15 0 0 1 1.13,-0.22 c 0.94,0.1 0.88,0.77 0.76,1.53 a 28.62,28.62 0 0 1 -0.71,2.87 4.1,4.1 0 0 0 -0.35,2.0799996 0.81,0.81 0 0 0 1.18,0.48 l 0.07,-0.05 a 0.81,0.81 0 0 0 0.34,-0.88 c 0.13,-2.0999996 2.509997,-5.7099996 0.38,-7.2799996 z m 8.319997,-0.93 c -2,-0.31 -3.85,1.31 -4.7,2.94 a 6.78,6.78 0 0 0 -0.5,1.33 0.63,0.63 0 0 0 -0.16,1 3.17,3.17 0 0 0 0.92,2.6799996 4.81,4.81 0 0 0 5.64,0.24 c 0.88,-0.55 0,-1.9999996 -0.81,-1.3899996 a 3.34,3.34 0 0 1 -3.44,0.3599996 1.8,1.8 0 0 1 -0.94,-1.8299996 c 1.95,-0.15 3.88,-0.4 5.85,-0.38 a 0.78,0.78 0 0 0 0.73,-0.56 c 0.3,-1.71 -0.66,-4.09 -2.59,-4.39 z m -1.86,1.83 a 2,2 0 0 1 3,1.63 25.35,25.35 0 0 0 -4.76,0.39 4.11,4.11 0 0 1 1.76,-2.02 z m 11.98,-1.33 c -1,-0.42 -1.86,0.26 -2.7,0.75 -0.18,0.11 -0.35,0.22 -0.51,0.34 a 3.06,3.06 0 0 0 -0.1,-0.79 0.48,0.48 0 0 0 -0.87,-0.11 c -0.71,1 -0.78,2.46 -1.05,3.67 -0.31,1.38 -0.73,2.7699996 -0.94,4.1699996 a 0.65385396,0.65385396 0 0 0 1.26,0.35 26.52,26.52 0 0 0 1.21,-4.3999996 c 0.07,-0.33 0.16,-0.67 0.24,-1 a 14.08,14.08 0 0 1 1.24,-0.75 6.27,6.27 0 0 1 1.84,-0.81 c 0.65,-0.08 1.15,-1.09 0.38,-1.42 z" />
  <path
     id="path14"
     opacity="0.15"
     d="m 158.90905,134.81973 c -1.28,-15.12 -0.43,-79.57 -0.59,-96.53 0,-2.65 -2.18,-3.64 -4.41,-2.55 -2.5,1.22 -4.27,4.64 -4.25,7.35 0.16,16.59 0.83,99.68 0.83,100.35 -1.68,0.25 -114.839997,-0.39 -124.999997,-0.62 -4.67,-0.1 -9.3,10.87 -4.13,11 32.42,0.72 64.87,1.45 97.289997,1.41 6.45,0 30.57,0 35.56,-3.58 5.4,-3.92 5.21,-10.86 4.7,-16.83 z" />
  <path
     id="path16"
     fill="#e8e8e8"
     d="m 152.46905,37.10973 c -0.13,-1 -3,-2.84 -3.37,-2.91 -0.86,-0.14 -124.059997,-0.1 -126.509997,0 -1.05,0 -4.17,1.14 -4.48,1.6 -0.75,1.11 -1,107.16 -0.92,108.72 0,0.7 4.29,3.26 6.38,3.31 2.5,0 122.269997,0.52 124.639997,0.14 0.86,-0.14 4.24,-2.91 4.3,-4.19 0.06,-1.28 0.09,-105.65 -0.04,-106.67 z" />
  <path
     id="path18"
     opacity="0.15"
     d="m 491.50905,40.60973 c 0,-2.64 -2.18,-3.64 -4.41,-2.54 -2.5,1.22 -4.27,4.63 -4.24,7.35 0.28,31.89 0.14,63.8 0.08,95.69 q -47.74,0.33 -95.49,0.62 -82.22,0.53 -164.43,1 c -14.08,0.07 -28.2,0.43 -42.28,0.11 -4.67,-0.1 -9.31,10.86 -4.13,11 36.46,0.83 73,-0.26 109.5,-0.47 q 81.15,-0.48 162.29,-1 l 36.78,-0.24 c 3.74,0 6.39,-4.53 6.39,-7.89 0.05,-34.59 0.25,-69.12 -0.06,-103.63 z" />
  <path
     id="path20"
     fill="#e8e8e8"
     d="m 484.50905,135.27973 c -0.2,1.92 0.23,9.71 -2.31,10.68 a 33.29,33.29 0 0 1 -3.57,0.54 c -1.52,0.27 -288.39,0.45 -288.39,0.45 -4.31,-0.13 -20.72,-0.94 -21.27,-1.81 -1.32,-2.08 -1.16,-12.68 -1.11,-14.15 0,0 -0.75,-88 -0.57,-90.93 0.08,-1.32 -2.37,-6.39 11.75,-6.21 4.4,0.06 293.84,-1 298,-0.26 1.52,0.26 3.88,-0.13 5.1,0.52 2.86,1.51 2.37,4.94 2.49,7.34 0.12,2.4 -0.12,93.83 -0.12,93.83 z" />
  <path
     id="path22"
     fill="#b7b7b7"
     d="m 84.249053,80.96973 c -1.62,1.48 -3.27,2.91 -4.75,4.52 -0.76,0.84 0.28,2.43 1.29,1.67 1.01,-0.76 2.07,-1.69 3.06,-2.58 q -0.15,8 -0.27,16 a 1.32,1.32 0 0 0 2.64,0 c 0,-6.26 0,-12.51 0.08,-18.76 a 1.21,1.21 0 0 0 -2.05,-0.85 z m 249.629997,18.23 c -3,0 -6.06,-0.18 -9.08,-0.14 4.91,-3.75 11.1,-8.65 9.41,-14.8 -1.74,-6.35 -9.89,-3.6 -13.5,-0.69 a 1,1 0 0 0 1,1.66 46.69,46.69 0 0 1 5.05,-2 c 2.54,-0.66 4.5,0.28 5.07,3.08 0.3,1.49 -1.3,3.73 -2.18,4.8 -2.73,3.28 -6.48,5.87 -9.74,8.59 a 1.3,1.3 0 0 0 0.91,2.19 63.65,63.65 0 0 1 13.09,0.32 c 1.84,0.18 1.93,-3.02 -0.03,-3.01 z" />
  <path
     id="path24"
     opacity="0.6"
     fill="#ffffff"
     d="m 149.30905,35.16973 c -15.6,-3.27 -120.679997,-1.44 -125.669997,-1 -4.99,0.44 -5.64,3.82 -5.5,5.7 0.6,7.62 -2.38,98.22 1.47,104.9 2.05,3.56 5.25,-0.81 6,-2.41 3.41,-7.48 1.47,-17.14 1.22,-25.24 -0.31,-9.83 -0.51,-19.67 -0.73,-29.5 -0.2,-9.08 -0.74,-39.43 -0.93,-43.1 4.9,0.8 31.07,-1.44 39,-1.71 18.46,-0.62 36.919997,-1.11 55.389997,-1.31 9,-0.1 17.78,0 26.69,1.89 3.32,0.72 7.08,-7.37 3.06,-8.22 z m 330.76,-0.37 c -8.06,-1.5 -292.78,-1.52 -297.75,-1 -5.68,0.61 -12.18,1.26 -13.95,7.64 -1.42,5.12 0,99.41 0.38,101.6 0.38,2.19 3.86,1.34 5,0.45 a 6.29,6.29 0 0 0 2.24,-5.81 c -0.95,-5.08 -0.91,-10.64 -1.1,-15.85 -0.32,-8.8 -0.38,-77.95 -0.44,-78.91 1.54,0.15 43.37,-1.4 52.31,-1.39 63.38,0.05 243.9,0.77 250.17,1.51 3.46,0.4 7.05,-7.5 3.14,-8.24 z" />
  <path
     id="path26"
     fill="#1e1e1e"
     d="m 485.93905,49.14973 c 0,-1.83 -0.15,-3.67 -0.23,-5.5 -0.11,-2.41 0.39,-6.43 -1,-8.61 -1.73,-2.79 -6.63,-2.47 -9.76,-2.58 -8.17,-0.3 -16.37,-0.2 -24.55,-0.25 -33.66,-0.19 -67.33,-0.12 -101,-0.09 q -55.28,0 -110.55,0.17 c -20.64,0 -41.28,-0.06 -61.91,0.43 -5.23,0.13 -9.79,0 -10.71,6.07 a 27.79,27.79 0 0 0 -0.16,4.08 c 0,6.45 0,12.9 0.07,19.36 q 0.15,28.35 0.35,56.71 c 0,5.55 0.07,11.11 0.09,16.66 a 36.45,36.45 0 0 0 0.7,7.93 c 1,4.47 4.83,4 8.8,4.06 14,0.21 28,0.37 42,0.4 q 34.51,0.06 69,0 h 116 c 23.24,0 46.56,0.47 69.8,-0.19 a 48.8,48.8 0 0 0 6.15,-0.56 c 4,-0.61 5.12,-1.74 6.15,-6 a 0.78,0.78 0 0 0 0,-0.34 c 1.1,-12.37 0.28,-25.19 0.36,-37.59 q 0.16,-25 0.28,-50 c 0.11,-1.4 0.15,-2.78 0.12,-4.16 z m -5,96.16 c -2,0.87 -5,0.65 -7.17,0.68 h -263.9 c -7.27,0 -14.54,0.13 -21.8,-0.08 -3.85,-0.11 -7.69,-0.27 -11.53,-0.34 -3.5,-0.06 -6.67,0.37 -7.34,-3.79 a 42.57,42.57 0 0 1 -0.38,-6.95 c -0.09,-30.42 -0.48,-60.84 -0.41,-91.26 a 16.79,16.79 0 0 1 0.16,-4.31 c 1.49,-5.29 7.58,-4.15 12,-4.24 3.8,-0.08 7.6,-0.21 11.41,-0.25 h 4 l 26.87,-0.05 q 50,-0.1 100,-0.17 53.14,-0.09 106.3,-0.07 h 35.42 c 3.2,0 6.41,0 9.61,0.08 h 2.56 a 20.71,20.71 0 0 1 3.47,0.47 c 3.3,0.9 3.25,2.68 3.45,5.79 0.77,12.24 0.41,24.55 0.4,36.81 q 0,26.28 -0.08,52.58 c 0,3.5 0.2,7.11 -0.09,10.61 -0.69,2.46 -1.63,3.91 -2.98,4.46 z m -327.13,-16.83 c 0,-9.86 -0.1,-19.72 -0.16,-29.58 -0.12,-19.33 -0.2,-38.66 -0.41,-58 0,-1.19 0,-2.4 -0.06,-3.6 a 0.58,0.58 0 0 0 0,-0.39 c -1.71,-5.92 -12,-3.87 -16.94,-3.89 H 31.219053 c -2.93,0 -5.86,0.1 -8.77,0.3 -4.83,0.34 -5.95,2.39 -6,7.12 -0.16,14.48 -0.17,29 -0.27,43.44 -0.13,18.11 -0.48,36.22 -0.41,54.33 0,2.55 -0.45,5.73 0.6,8 1.42,3 5.48,2.77 8.35,2.82 6.5,0.11 13,0.09 19.5,0.13 q 32.64,0.21 65.289997,0.39 c 6.71,0 13.42,0.18 20.13,0.11 3,0 6,-0.17 9.06,-0.08 4.74,0.15 13.43,1.23 14.86,-4.76 1.15,-5 0.26,-11.37 0.25,-16.34 z m -2.08,-51 c 0,18.77 -0.15,37.53 -0.14,56.3 v 5.68 a 16.33,16.33 0 0 1 -0.15,3.36 c -1.4,6.06 -9.15,4.52 -14.05,4.37 -4.9,-0.15 -9.85,0.11 -14.75,0.08 l -57.889997,-0.34 -28.09,-0.16 c -4.17,0 -8.93,0.58 -13.06,-0.09 -4.89,-0.8 -5.58,-4.64 -5.59,-8.71 v -7.37 q 0.06,-13.29 0.15,-26.59 0.16,-28.11 0.33,-56.23 v -5.64 -1.79 c 0,-1.92 0.49,-4.09 2.29,-4.89 1.29,-0.58 3.73,-0.26 5.13,-0.32 4.33,-0.17 8.65,-0.13 13,-0.13 q 49.79,0 99.579997,-0.12 c 3,0 12,-1.34 13.25,2.42 1.04,13.24 0.02,26.97 -0.01,40.16 z" />
  <path
     id="path28"
     fill="#b81414"
     d="m 261.41905,255.82973 c -1,1.16 -1.78,2.42 -2.63,3.66 a 35.42,35.42 0 0 1 -2,3.08 c 1.12,-7.67 0.19,-16.24 0.24,-23.85 q 0.15,-28.59 0.08,-57.18 0,-63.52 -0.37,-127.06 c 0,-9.49 0,-19 -0.27,-28.49 a 4.53,4.53 0 0 0 3.11,-1.5 c 1.48,-1.78 1,-5.64 -0.89,-7 a 0.54,0.54 0 0 0 -0.34,-0.12 c -1.43,-1.48 -4.33,-1.07 -5.73,0.27 -1.78,1.69 -2.13,5.53 -0.14,7.21 a 5.16,5.16 0 0 0 2.66,1.11 c -0.64,26 0,52.09 0.08,78.09 0.11,42.59 0.22,85.19 0,127.78 0,7.43 -0.08,14.86 -0.19,22.28 0,2.37 0.16,5.32 0,7.81 -0.59,-0.86 -1.2,-2 -1.45,-2.31 a 23.34,23.34 0 0 0 -2.57,-3.48 0.58,0.58 0 0 0 -1,0.55 c 0.6,2 2.11,3.77 3.26,5.53 0.59,0.9 1.37,3.15 2.66,3.28 1.29,0.13 1.89,-1.53 2.41,-2.28 1.45,-2.11 3,-4.19 4.29,-6.42 0.51,-0.75 -0.56,-1.7 -1.21,-0.96 z m -7.44,-237.3 c 1.4,-1 2.6,-0.37 3.93,0.2 0.84,1.1 1.5,3.36 0.75,4.6 -1.07,1.75 -4.22,1.59 -5.4,0.12 a 3.7,3.7 0 0 1 0.72,-4.92 z" />
  <path
     id="path30"
     fill="#b81414"
     d="m 602.56905,89.12973 c -2.12,-1.45 -4.19,-3 -6.43,-4.3 -0.77,-0.43 -1.72,0.67 -1,1.28 1.17,1 2.43,1.79 3.67,2.64 0.45,0.32 2.26,1.3 3.12,2 -4.77,-0.57 -10.56,0 -15.35,0 -14.67,-0.06 -29.33,0 -44,0 q -70.87,0.09 -141.75,0.42 -85.24,0.34 -170.49,0.76 -73.74,0.36 -147.499997,0.76 -24.33,0.13 -48.65,0.27 -7.51,0.06 -15,0.14 c -2.47,0 -6.41,-0.35 -8.85,0.12 a 1.37,1.37 0 0 1 -0.29,0 4.52,4.52 0 0 0 -1.5100002,-3.13 c -1.78,-1.47 -5.64,-1 -7,0.89 a 0.7,0.7 0 0 0 -0.12,0.34 c -1.46999998,1.43 -1.05999998,4.33 0.27,5.73 1.69,1.78 5.54,2.13 7.21,0.14 a 5.17,5.17 0 0 0 1.1700002,-2.69 c 19.23,0.12 39.46,-0.05 58.68,-0.14 q 70.209997,-0.35 140.429997,-0.65 85.2,-0.39 170.41,-0.72 74.16,-0.27 148.32,-0.43 c 24.37,0 48.75,-0.24 73.12,0.11 -0.81,0.53 -1.71,1 -2,1.26 a 23.68,23.68 0 0 0 -3.48,2.57 0.58,0.58 0 0 0 0.55,1 c 2,-0.61 3.77,-2.12 5.53,-3.26 0.91,-0.59 3.15,-1.37 3.28,-2.66 0.13,-1.29 -1.6,-1.94 -2.34,-2.45 z m -595.0799972,7.27 a 3.68,3.68 0 0 1 -4.92,-0.72 c -1,-1.4 -0.38,-2.6 0.2,-3.93 1.1,-0.84 3.36,-1.5 4.6,-0.75 1.7,1.07 1.59,4.22 0.12,5.4 z" />
  <path
     id="path32"
     fill="#1e1e1e"
     d="m 29.559053,130.85973 -1.16,0.06 c 0.35,-1.27 0.92,-2.41 1.88,-2 a 0.6903079,0.6903079 0 0 0 0.7,-1.19 c -1.47,-1.12 -2.9,-0.27 -3.5,1.3 -0.23,0.63 -0.43,1.29 -0.62,2 a 6.41,6.41 0 0 0 -1,0.16 0.55502252,0.55502252 0 0 0 0.21,1.09 h 0.5 c -0.52,2.29 -0.83,4.7 -1.21,6.89 a 0.79,0.79 0 1 0 1.55,0.21 c 0.25,-1.94 0.58,-3.86 1,-5.78 0,-0.2 0.1,-0.67 0.2,-1.23 l 1.48,0.11 c 0.99,0.05 1,-1.69 -0.03,-1.62 z m 3.31,-3.06 c -1.43,3.4 -1.63,7.5 -2.54,11.09 -0.25,0.95 1.27,1.35 1.45,0.4 0.7,-3.63 2.14,-7.66 2,-11.37 a 0.46,0.46 0 0 0 -0.91,-0.12 z m 8.01,8.48 c 1.24,-0.1 2,-0.4 2.11,-1.75 0.19,-3.08 -2.24,-4.44 -5.07,-3.61 a 4.84,4.84 0 0 0 -3.15,3.87 0.61,0.61 0 0 0 -0.14,0.93 7,7 0 0 0 0.12,1.85 c 0.58,2.61 4.26,3 6.18,1.6 a 0.76,0.76 0 1 0 -0.92,-1.2 3.19,3.19 0 0 1 -2.53,0.4 c -1.22,-0.29 -1.41,-1.09 -1.41,-2.23 a 19.66,19.66 0 0 0 4.81,0.14 z m -4.66,-1.59 a 3.15,3.15 0 0 1 3.13,-2.69 c 1.13,0 1.9,0.31 2.19,1.47 0,0.16 0.23,1 0,1.22 -0.23,0.22 -0.6,0.15 -1,0.16 -1.41,0 -2.87,-0.15 -4.32,-0.18 z m 14.57,-3.48 a 10.28,10.28 0 0 0 -3.5,2.51 7.36,7.36 0 0 0 -1.48,-2.54 0.5,0.5 0 0 0 -0.85,0.35 8.23,8.23 0 0 0 1.18,3.34 c -1,1.11 -1.95,2.34 -3.08,3.38 a 0.79649231,0.79649231 0 0 0 1,1.24 12.93,12.93 0 0 0 2.89,-3.05 c 0.52,1.06 1,2.11 1.51,3.19 0.51,1.08 2,0.1 1.41,-0.82 -0.68,-1.13 -1.26,-2.32 -1.83,-3.51 1.18,-1.05 2.65,-2 3.4,-3.3 a 0.54,0.54 0 0 0 -0.65,-0.79 z m 7.8,0.07 c -0.37,2.42 -1.11,4.82 -1.57,7.23 -0.19,1 1.36,1.49 1.6,0.44 0.36,-1.58 0.67,-3.17 1,-4.76 0.18,-0.94 0.69,-2.17 0.17,-3.06 -0.28,-0.42 -1.11,-0.4 -1.2,0.15 z m 1.33,-3.56 a 0.82,0.82 0 0 0 0,1.63 0.82,0.82 0 0 0 0,-1.63 z m 5.93,3.02 c -0.39,0 -0.78,0.06 -1.16,0.1 a 8.65,8.65 0 0 0 0.29,-1.88 0.51,0.51 0 0 0 -0.94,-0.25 7.84,7.84 0 0 0 -1,2.2 2.81,2.81 0 0 0 -1.46,0.27 0.46,0.46 0 0 0 -0.09,0.7 2.06,2.06 0 0 0 1.16,0.47 l -0.18,0.67 c -0.39,1.49 -1.1,3.32 -1,4.87 0.19,1.93 1.81,2.45 3.25,1.29 0.63,-0.52 -0.18,-1.49 -0.86,-1.11 -1.13,0.63 -0.52,-2.23 -0.46,-2.48 0.18,-0.84 0.39,-1.68 0.61,-2.52 0.05,-0.22 0.12,-0.44 0.19,-0.67 a 10.85,10.85 0 0 0 1.87,-0.12 0.77781746,0.77781746 0 0 0 -0.22,-1.54 z m 4.3,0.18 a 5.52,5.52 0 0 0 -3.32,5.74 c 0.4,3.28 3.79,3.81 6.32,2.38 0.85,-0.47 0.1,-1.72 -0.75,-1.29 -0.85,0.43 -2.66,1 -3.6,0 a 2.71,2.71 0 0 1 -0.56,-2.07 c 1.53,0.15 3.1,-0.1 4.64,0 1.11,0 2,0.52 2.34,-0.87 0.66,-3.1 -2.36,-4.94 -5.07,-3.89 z m 3.8,3.31 a 9.13,9.13 0 0 1 -1.54,-0.08 30.28,30.28 0 0 0 -3.8,0.12 3.73,3.73 0 0 1 3.19,-2.33 2.35,2.35 0 0 1 1.59,0.57 c 0.12,0.12 0.84,1.45 0.56,1.77 z m 14.92,-2.77 c -1.32,-1.3 -3.34,-0.37 -4.66,0.75 a 2.14,2.14 0 0 0 -0.53,-1 c -1.21,-1.27 -3,-0.26 -4.36,0.86 a 2.42,2.42 0 0 0 -0.13,-0.65 0.55,0.55 0 0 0 -1,-0.13 21.39,21.39 0 0 0 -1.85,8.1 c 0,0.87 1.42,1.1 1.55,0.21 0.22,-1.51 0.42,-3 0.79,-4.5 0.11,-0.46 0.28,-0.92 0.41,-1.39 a 11.89,11.89 0 0 0 1.37,-0.83 c 0.27,-0.18 0.52,-0.39 0.79,-0.55 1,-0.61 1.67,0.23 1.62,1.34 a 25.22,25.22 0 0 1 -1.27,5 v 0.15 a 0.78,0.78 0 0 0 1.47,0.46 45.86,45.86 0 0 0 1.09,-5 c 0,-0.17 0,-0.35 0.07,-0.53 a 18.07,18.07 0 0 1 1.68,-0.9 2.35,2.35 0 0 1 1.33,-0.39 q 0.56,-0.18 0.45,0.48 a 1.28,1.28 0 0 1 0,1 34.21,34.21 0 0 1 -1.16,4.9 c -0.32,1.1 1.52,1.54 1.68,0.46 0.24,-1.66 0.65,-3.3 1,-4.94 0.18,-1.01 0.46,-2.08 -0.34,-2.9 z m 93.339997,-0.6 -1.16,0.06 c 0.35,-1.27 0.92,-2.41 1.88,-2 a 0.6903079,0.6903079 0 0 0 0.7,-1.19 c -1.47,-1.12 -2.9,-0.27 -3.5,1.3 -0.23,0.63 -0.43,1.29 -0.62,2 a 6.41,6.41 0 0 0 -1,0.16 0.55,0.55 0 0 0 0.15,1.07 h 0.5 c -0.52,2.29 -0.84,4.7 -1.21,6.89 a 0.78,0.78 0 1 0 1.54,0.21 c 0.26,-1.94 0.59,-3.86 1,-5.78 0,-0.2 0.1,-0.67 0.2,-1.23 l 1.48,0.11 c 1.06,0.07 1.07,-1.67 0.04,-1.6 z m 3.31,-3.06 c -1.43,3.4 -1.63,7.5 -2.55,11.09 -0.24,0.95 1.28,1.35 1.46,0.4 0.7,-3.63 2.14,-7.66 2,-11.37 a 0.46,0.46 0 0 0 -0.91,-0.12 z m 8.01,8.48 c 1.24,-0.1 2,-0.4 2.11,-1.75 0.18,-3.08 -2.24,-4.44 -5.07,-3.61 a 4.87,4.87 0 0 0 -3.16,3.87 0.61,0.61 0 0 0 -0.13,0.93 6.63,6.63 0 0 0 0.12,1.85 c 0.58,2.61 4.25,3 6.18,1.6 a 0.76,0.76 0 1 0 -0.92,-1.2 3.21,3.21 0 0 1 -2.54,0.4 c -1.21,-0.27 -1.43,-1.08 -1.43,-2.21 a 19.66,19.66 0 0 0 4.84,0.12 z m -4.66,-1.59 a 3.14,3.14 0 0 1 3.13,-2.69 c 1.13,0 1.9,0.31 2.19,1.47 0,0.16 0.23,1 0,1.22 -0.23,0.22 -0.6,0.15 -1,0.16 -1.41,0 -2.87,-0.15 -4.32,-0.18 z m 14.57,-3.48 a 10.19,10.19 0 0 0 -3.5,2.51 7.23,7.23 0 0 0 -1.49,-2.54 0.49,0.49 0 0 0 -0.84,0.35 8.23,8.23 0 0 0 1.18,3.34 c -1.05,1.11 -1.95,2.34 -3.08,3.38 a 0.79649231,0.79649231 0 0 0 1,1.24 12.54,12.54 0 0 0 2.89,-3.05 c 0.52,1.06 1.05,2.11 1.52,3.19 0.47,1.08 2,0.1 1.41,-0.82 a 39,39 0 0 1 -1.83,-3.51 c 1.18,-1.05 2.64,-2 3.4,-3.3 a 0.54,0.54 0 0 0 -0.66,-0.79 z m 7.8,0.07 c -0.37,2.42 -1.11,4.82 -1.57,7.23 -0.19,1 1.36,1.49 1.6,0.44 0.36,-1.58 0.67,-3.17 1,-4.76 0.18,-0.94 0.69,-2.17 0.16,-3.06 -0.27,-0.42 -1.1,-0.4 -1.19,0.15 z m 1.33,-3.56 a 0.82,0.82 0 0 0 0,1.63 0.82,0.82 0 0 0 0,-1.63 z m 5.92,3.02 c -0.38,0 -0.77,0.06 -1.16,0.1 a 8.1,8.1 0 0 0 0.3,-1.88 0.51,0.51 0 0 0 -0.94,-0.25 7.84,7.84 0 0 0 -1,2.2 2.81,2.81 0 0 0 -1.46,0.27 0.45,0.45 0 0 0 -0.09,0.7 2.06,2.06 0 0 0 1.15,0.47 c -0.05,0.22 -0.11,0.45 -0.17,0.67 -0.39,1.49 -1.1,3.32 -1,4.87 0.19,1.93 1.81,2.45 3.25,1.29 0.63,-0.52 -0.18,-1.49 -0.86,-1.11 -1.13,0.63 -0.52,-2.23 -0.47,-2.48 0.19,-0.84 0.4,-1.68 0.62,-2.52 0.05,-0.22 0.12,-0.44 0.19,-0.67 a 10.85,10.85 0 0 0 1.8,-0.16 0.77,0.77 0 0 0 -0.16,-1.5 z m 4.31,0.18 a 5.52,5.52 0 0 0 -3.32,5.74 c 0.4,3.28 3.79,3.81 6.32,2.38 0.84,-0.47 0.1,-1.72 -0.75,-1.29 -1,0.51 -2.66,1 -3.6,0 a 2.71,2.71 0 0 1 -0.56,-2.07 c 1.53,0.15 3.1,-0.1 4.64,0 1.11,0 2,0.52 2.34,-0.87 0.66,-3.1 -2.37,-4.94 -5.07,-3.89 z m 3.8,3.31 a 9.28,9.28 0 0 1 -1.55,-0.08 30.18,30.18 0 0 0 -3.79,0.12 3.71,3.71 0 0 1 3.19,-2.33 2.35,2.35 0 0 1 1.59,0.57 c 0.12,0.12 0.84,1.45 0.56,1.77 z m 14.92,-2.77 c -1.32,-1.3 -3.34,-0.37 -4.67,0.75 a 2.12,2.12 0 0 0 -0.52,-1 c -1.21,-1.27 -3.05,-0.26 -4.36,0.86 a 2.42,2.42 0 0 0 -0.13,-0.65 0.55,0.55 0 0 0 -1,-0.13 21.39,21.39 0 0 0 -1.85,8.1 c -0.05,0.87 1.42,1.1 1.55,0.21 a 43.23,43.23 0 0 1 0.79,-4.5 c 0.11,-0.46 0.28,-0.92 0.41,-1.39 a 12.8,12.8 0 0 0 1.37,-0.83 c 0.26,-0.18 0.52,-0.39 0.79,-0.55 1,-0.61 1.67,0.23 1.62,1.34 a 25.22,25.22 0 0 1 -1.27,5 v 0.15 a 0.78366128,0.78366128 0 0 0 1.51,0.42 45.86,45.86 0 0 0 1.09,-5 c 0,-0.17 0.05,-0.35 0.07,-0.53 0.55,-0.32 1.1,-0.64 1.67,-0.9 0.39,-0.17 0.89,-0.49 1.33,-0.39 0.38,-0.12 0.53,0 0.46,0.48 a 1.28,1.28 0 0 1 0,1 34.21,34.21 0 0 1 -1.16,4.9 c -0.33,1.1 1.52,1.54 1.68,0.46 0.24,-1.66 0.65,-3.3 1,-4.94 0.17,-0.97 0.42,-2.04 -0.38,-2.86 z" />
</svg>
