<svg version="1.1" viewBox="0.0 0.0 670.0 502.0" fill="none" stroke="none" stroke-linecap="square" stroke-miterlimit="10" width="670" height="502" xmlns:xlink="http://www.w3.org/1999/xlink" xmlns="http://www.w3.org/2000/svg"><path fill="#ffffff" d="M0 0L670.0 0L670.0 502.0L0 502.0L0 0Z" fill-rule="nonzero"/><path fill="#4285f4" d="M335.0 65.833336C437.32315 65.833336 524.0627 141.10052 538.48224 242.40256C552.9018 343.7046 490.60922 440.18536 392.35013 468.73666L363.67508 370.05167C412.8046 355.776 443.9509 307.5356 436.74112 256.8846C429.53134 206.2336 386.16156 168.6 335.0 168.6Z" fill-rule="nonzero"/><path fill="#7baaf7" d="M334.72333 65.83352C334.81555 65.8334 334.90778 65.833336 335.0 65.833336L335.0 168.6C334.9539 168.6 334.90778 168.60004 334.86166 168.6001Z" fill-rule="nonzero"/><path fill="#46bdc6" d="M146.02725 352.19522C118.886826 288.74237 125.40347 215.90395 163.3766 158.27661C201.34973 100.649284 265.70984 65.92642 334.72333 65.83352L334.86166 168.6001C300.35492 168.64655 268.17487 186.00798 249.18831 214.82164C230.20174 243.6353 226.9434 280.0545 240.51363 311.78094Z" fill-rule="nonzero"/><path fill="#ff6d01" d="M171.39511 395.7748C161.1825 382.34457 152.66245 367.70792 146.02725 352.19522L240.51363 311.78094C243.83122 319.5373 248.09125 326.85562 253.19756 333.57074Z" fill-rule="nonzero"/><path fill="#34a853" d="M189.15334 416.18622C182.79207 409.77982 176.8598 402.96127 171.39511 395.7748L253.19756 333.57074C255.9299 337.16397 258.89603 340.57324 262.07666 343.77646Z" fill-rule="nonzero"/><path fill="#fbbc04" d="M221.78621 442.90848C210.021 435.14368 199.08582 426.18912 189.15334 416.18622L262.07666 343.77646C267.0429 348.7779 272.5105 353.2552 278.3931 357.13757Z" fill-rule="nonzero"/><path fill="#ea4335" d="M392.35013 468.73666C334.459 485.5582 272.1016 476.1155 221.78621 442.90848L278.3931 357.13757C303.5508 373.7411 334.7295 378.46243 363.67508 370.05167Z" fill-rule="nonzero"/><path fill="#1a1a1a" d="M25.975 76.552086Q25.975 73.34896 27.69375 71.53646Q29.4125 69.72396 32.146873 69.72396Q33.928123 69.72396 35.35 70.583336Q36.7875 71.427086 37.5375 72.958336Q38.2875 74.47396 38.2875 76.41146Q38.2875 78.364586 37.490623 79.91146Q36.709373 81.458336 35.25625 82.25521Q33.803123 83.052086 32.13125 83.052086Q30.31875 83.052086 28.88125 82.177086Q27.44375 81.302086 26.709375 79.78646Q25.975 78.25521 25.975 76.552086ZM27.725 76.583336Q27.725 78.91146 28.975 80.25521Q30.240625 81.59896 32.115623 81.59896Q34.053123 81.59896 35.2875 80.239586Q36.5375 78.88021 36.5375 76.395836Q36.5375 74.833336 36.00625 73.66146Q35.475 72.47396 34.44375 71.833336Q33.428123 71.19271 32.146873 71.19271Q30.334375 71.19271 29.021875 72.44271Q27.725 73.677086 27.725 76.583336ZM43.740623 81.41146L43.975 82.81771Q43.303123 82.958336 42.771873 82.958336Q41.9125 82.958336 41.428123 82.69271Q40.959373 82.41146 40.771873 81.97396Q40.584373 81.520836 40.584373 80.09896L40.584373 74.72396L39.4125 74.72396L39.4125 73.50521L40.584373 73.50521L40.584373 71.19271L42.146873 70.239586L42.146873 73.50521L43.740623 73.50521L43.740623 74.72396L42.146873 74.72396L42.146873 80.19271Q42.146873 80.864586 42.225 81.06771Q42.31875 81.25521 42.50625 81.364586Q42.69375 81.47396 43.053123 81.47396Q43.303123 81.47396 43.740623 81.41146ZM45.2875 82.833336L45.2875 69.94271L46.865623 69.94271L46.865623 74.56771Q47.975 73.28646 49.6625 73.28646Q50.69375 73.28646 51.459373 73.69271Q52.225 74.09896 52.553123 74.833336Q52.896873 75.552086 52.896873 76.91146L52.896873 82.833336L51.303123 82.833336L51.303123 76.91146Q51.303123 75.72396 50.7875 75.19271Q50.271873 74.645836 49.334373 74.645836Q48.63125 74.645836 48.00625 75.020836Q47.396873 75.38021 47.13125 76.00521Q46.865623 76.63021 46.865623 77.72396L46.865623 82.833336L45.2875 82.833336ZM61.678123 79.833336L63.31875 80.03646Q62.928123 81.458336 61.88125 82.25521Q60.834373 83.052086 59.209373 83.052086Q57.1625 83.052086 55.959373 81.78646Q54.75625 80.520836 54.75625 78.239586Q54.75625 75.895836 55.959373 74.59896Q57.178123 73.28646 59.115623 73.28646Q60.990623 73.28646 62.178123 74.56771Q63.365623 75.833336 63.365623 78.145836Q63.365623 78.28646 63.35 78.56771L56.396873 78.56771Q56.475 80.114586 57.25625 80.927086Q58.053123 81.739586 59.209373 81.739586Q60.084373 81.739586 60.69375 81.28646Q61.31875 80.833336 61.678123 79.833336ZM56.475 77.270836L61.69375 77.270836Q61.584373 76.09896 61.1 75.50521Q60.334373 74.583336 59.13125 74.583336Q58.053123 74.583336 57.303123 75.31771Q56.56875 76.052086 56.475 77.270836ZM65.27187 82.833336L65.27187 73.50521L66.69375 73.50521L66.69375 74.91146Q67.24062 73.927086 67.69375 73.614586Q68.1625 73.28646 68.70937 73.28646Q69.52187 73.28646 70.33437 73.802086L69.80312 75.270836Q69.20937 74.927086 68.63125 74.927086Q68.11562 74.927086 67.69375 75.239586Q67.2875 75.552086 67.11562 76.09896Q66.85 76.94271 66.85 77.94271L66.85 82.833336L65.27187 82.833336Z" fill-rule="nonzero"/><path fill="#9e9e9e" d="M25.85 101.47396Q25.85 99.19271 26.31875 97.802086Q26.7875 96.41146 27.709375 95.66146Q28.646875 94.895836 30.053125 94.895836Q31.084375 94.895836 31.865625 95.31771Q32.646873 95.72396 33.146873 96.520836Q33.6625 97.302086 33.959373 98.44271Q34.25625 99.56771 34.25625 101.47396Q34.25625 103.739586 33.7875 105.145836Q33.31875 106.53646 32.38125 107.302086Q31.459375 108.052086 30.053125 108.052086Q28.178125 108.052086 27.115625 106.72396Q25.85 105.114586 25.85 101.47396ZM27.475 101.47396Q27.475 104.645836 28.209375 105.708336Q28.959375 106.75521 30.053125 106.75521Q31.13125 106.75521 31.88125 105.708336Q32.63125 104.645836 32.63125 101.47396Q32.63125 98.302086 31.88125 97.25521Q31.13125 96.208336 30.0375 96.208336Q28.94375 96.208336 28.2875 97.13021Q27.475 98.302086 27.475 101.47396ZM36.740623 107.833336L36.740623 106.03646L38.5375 106.03646L38.5375 107.833336L36.740623 107.833336ZM40.85 101.47396Q40.85 99.19271 41.31875 97.802086Q41.7875 96.41146 42.709373 95.66146Q43.646873 94.895836 45.053123 94.895836Q46.084373 94.895836 46.865623 95.31771Q47.646873 95.72396 48.146873 96.520836Q48.6625 97.302086 48.959373 98.44271Q49.25625 99.56771 49.25625 101.47396Q49.25625 103.739586 48.7875 105.145836Q48.31875 106.53646 47.38125 107.302086Q46.459373 108.052086 45.053123 108.052086Q43.178123 108.052086 42.115623 106.72396Q40.85 105.114586 40.85 101.47396ZM42.475 101.47396Q42.475 104.645836 43.209373 105.708336Q43.959373 106.75521 45.053123 106.75521Q46.13125 106.75521 46.88125 105.708336Q47.63125 104.645836 47.63125 101.47396Q47.63125 98.302086 46.88125 97.25521Q46.13125 96.208336 45.0375 96.208336Q43.94375 96.208336 43.2875 97.13021Q42.475 98.302086 42.475 101.47396ZM51.146873 98.03646Q51.146873 96.66146 51.834373 95.69271Q52.5375 94.72396 53.85 94.72396Q55.06875 94.72396 55.865623 95.59896Q56.6625 96.458336 56.6625 98.145836Q56.6625 99.770836 55.85 100.66146Q55.053123 101.53646 53.865623 101.53646Q52.709373 101.53646 51.928123 100.677086Q51.146873 99.802086 51.146873 98.03646ZM53.896873 95.81771Q53.303123 95.81771 52.9125 96.333336Q52.521873 96.833336 52.521873 98.19271Q52.521873 99.44271 52.9125 99.94271Q53.31875 100.44271 53.896873 100.44271Q54.490623 100.44271 54.88125 99.94271Q55.271873 99.427086 55.271873 98.083336Q55.271873 96.833336 54.88125 96.333336Q54.490623 95.81771 53.896873 95.81771ZM53.9125 108.302086L60.959373 94.72396L62.240623 94.72396L55.209373 108.302086L53.9125 108.302086ZM59.475 104.802086Q59.475 103.427086 60.1625 102.458336Q60.865623 101.489586 62.19375 101.489586Q63.4125 101.489586 64.19375 102.364586Q64.99062 103.22396 64.99062 104.91146Q64.99062 106.53646 64.19375 107.427086Q63.396873 108.302086 62.209373 108.302086Q61.0375 108.302086 60.25625 107.427086Q59.475 106.552086 59.475 104.802086ZM62.240623 102.583336Q61.646873 102.583336 61.25625 103.09896Q60.865623 103.59896 60.865623 104.97396Q60.865623 106.19271 61.25625 106.708336Q61.646873 107.22396 62.225 107.22396Q62.834373 107.22396 63.225 106.708336Q63.615623 106.19271 63.615623 104.84896Q63.615623 103.59896 63.225 103.09896Q62.834373 102.583336 62.240623 102.583336Z" fill-rule="nonzero"/><path stroke="#757575" stroke-width="1.0" stroke-linecap="butt" d="M25.1 89.333336L123.46667 89.333336L334.8686 76.11005" fill-rule="nonzero"/><path fill="#9e9e9e" d="M336.8686 76.11005C336.8686 75.00548 335.97314 74.11005 334.8686 74.11005C333.764 74.11005 332.8686 75.00548 332.8686 76.11005C332.8686 77.214615 333.764 78.11005 334.8686 78.11005C335.97314 78.11005 336.8686 77.214615 336.8686 76.11005" fill-rule="nonzero"/><path fill="#1a1a1a" d="M26.771875 157.4311L26.771875 144.54048L28.490625 144.54048L28.490625 157.4311L26.771875 157.4311ZM31.2875 157.4311L31.2875 148.10298L32.709373 148.10298L32.709373 149.39986Q33.146873 148.72798 33.865623 148.3061Q34.6 147.88423 35.5375 147.88423Q36.56875 147.88423 37.225 148.32173Q37.896873 148.7436 38.1625 149.52486Q39.271873 147.88423 41.053123 147.88423Q42.44375 147.88423 43.178123 148.66548Q43.928123 149.4311 43.928123 151.02486L43.928123 157.4311L42.365623 157.4311L42.365623 151.5561Q42.365623 150.60298 42.209373 150.1811Q42.053123 149.75923 41.646873 149.50923Q41.240623 149.25923 40.69375 149.25923Q39.709373 149.25923 39.053123 149.91548Q38.4125 150.57173 38.4125 152.00923L38.4125 157.4311L36.834373 157.4311L36.834373 151.3686Q36.834373 150.3061 36.44375 149.79048Q36.053123 149.25923 35.178123 149.25923Q34.50625 149.25923 33.94375 149.6186Q33.38125 149.96236 33.115623 150.63423Q32.865623 151.3061 32.865623 152.58736L32.865623 157.4311L31.2875 157.4311ZM52.38125 156.27486Q51.50625 157.02486 50.678123 157.33736Q49.865623 157.64986 48.94375 157.64986Q47.396873 157.64986 46.56875 156.89986Q45.75625 156.13423 45.75625 154.96236Q45.75625 154.29048 46.06875 153.72798Q46.38125 153.14986 46.88125 152.8061Q47.38125 152.46236 48.021873 152.29048Q48.490623 152.16548 49.428123 152.0561Q51.334373 151.82173 52.240623 151.50923Q52.25625 151.1811 52.25625 151.08736Q52.25625 150.13423 51.803123 149.72798Q51.19375 149.19673 50.00625 149.19673Q48.88125 149.19673 48.35 149.58736Q47.81875 149.97798 47.56875 150.97798L46.021873 150.75923Q46.240623 149.75923 46.709373 149.14986Q47.19375 148.54048 48.1 148.21236Q49.021873 147.88423 50.240623 147.88423Q51.428123 147.88423 52.178123 148.16548Q52.928123 148.44673 53.271873 148.88423Q53.63125 149.3061 53.771873 149.94673Q53.85 150.35298 53.85 151.41548L53.85 153.52486Q53.85 155.72798 53.94375 156.32173Q54.053123 156.89986 54.35 157.4311L52.69375 157.4311Q52.44375 156.9311 52.38125 156.27486ZM52.240623 152.7436Q51.38125 153.10298 49.6625 153.33736Q48.69375 153.47798 48.2875 153.66548Q47.88125 153.83736 47.6625 154.1811Q47.44375 154.50923 47.44375 154.9311Q47.44375 155.5561 47.9125 155.97798Q48.396873 156.39986 49.31875 156.39986Q50.240623 156.39986 50.94375 156.00923Q51.6625 155.60298 51.990623 154.91548Q52.240623 154.3686 52.240623 153.32173L52.240623 152.7436ZM55.990623 158.21236L57.5375 158.4311Q57.63125 159.14986 58.06875 159.47798Q58.6625 159.91548 59.678123 159.91548Q60.771873 159.91548 61.365623 159.46236Q61.975 159.02486 62.178123 158.2436Q62.303123 157.75923 62.303123 156.21236Q61.25625 157.4311 59.709373 157.4311Q57.7875 157.4311 56.725 156.04048Q55.678123 154.64986 55.678123 152.71236Q55.678123 151.3686 56.1625 150.2436Q56.646873 149.1186 57.56875 148.50923Q58.490623 147.88423 59.725 147.88423Q61.38125 147.88423 62.44375 149.22798L62.44375 148.10298L63.9125 148.10298L63.9125 156.16548Q63.9125 158.35298 63.459373 159.25923Q63.021873 160.16548 62.053123 160.6811Q61.1 161.21236 59.69375 161.21236Q58.021873 161.21236 56.990623 160.46236Q55.959373 159.71236 55.990623 158.21236ZM57.303123 152.60298Q57.303123 154.4311 58.0375 155.27486Q58.771873 156.1186 59.865623 156.1186Q60.959373 156.1186 61.69375 155.29048Q62.428123 154.44673 62.428123 152.64986Q62.428123 150.9311 61.6625 150.07173Q60.9125 149.19673 59.834373 149.19673Q58.7875 149.19673 58.0375 150.0561Q57.303123 150.91548 57.303123 152.60298ZM72.67812 154.4311L74.31875 154.63423Q73.92812 156.0561 72.88125 156.85298Q71.83437 157.64986 70.20937 157.64986Q68.1625 157.64986 66.95937 156.38423Q65.75625 155.1186 65.75625 152.83736Q65.75625 150.4936 66.95937 149.19673Q68.17812 147.88423 70.11562 147.88423Q71.99062 147.88423 73.17812 149.16548Q74.36562 150.4311 74.36562 152.7436Q74.36562 152.88423 74.35 153.16548L67.39687 153.16548Q67.475 154.71236 68.25625 155.52486Q69.05312 156.33736 70.20937 156.33736Q71.08437 156.33736 71.69375 155.88423Q72.31875 155.4311 72.67812 154.4311ZM67.475 151.8686L72.69375 151.8686Q72.58437 150.69673 72.1 150.10298Q71.33437 149.1811 70.13125 149.1811Q69.05312 149.1811 68.30312 149.91548Q67.56875 150.64986 67.475 151.8686ZM75.64687 154.64986L77.225 154.39986Q77.35 155.33736 77.94375 155.83736Q78.55312 156.33736 79.63125 156.33736Q80.725 156.33736 81.25625 155.89986Q81.7875 155.44673 81.7875 154.85298Q81.7875 154.32173 81.31875 154.00923Q80.99062 153.8061 79.69375 153.47798Q77.95937 153.04048 77.2875 152.72798Q76.61562 152.39986 76.25625 151.83736Q75.9125 151.25923 75.9125 150.57173Q75.9125 149.94673 76.19375 149.41548Q76.49062 148.88423 76.975 148.54048Q77.35 148.25923 77.99062 148.07173Q78.63125 147.88423 79.35 147.88423Q80.45937 147.88423 81.2875 148.21236Q82.11562 148.52486 82.50625 149.07173Q82.9125 149.60298 83.05312 150.50923L81.50625 150.71236Q81.39687 149.9936 80.89687 149.58736Q80.39687 149.1811 79.475 149.1811Q78.38125 149.1811 77.9125 149.54048Q77.44375 149.89986 77.44375 150.38423Q77.44375 150.69673 77.64687 150.94673Q77.83437 151.19673 78.24062 151.3686Q78.49062 151.44673 79.64687 151.77486Q81.31875 152.21236 81.975 152.50923Q82.64687 152.79048 83.02187 153.33736Q83.4125 153.88423 83.4125 154.6811Q83.4125 155.47798 82.94375 156.1811Q82.49062 156.88423 81.61562 157.27486Q80.74062 157.64986 79.64687 157.64986Q77.81875 157.64986 76.86562 156.89986Q75.9125 156.13423 75.64687 154.64986Z" fill-rule="nonzero"/><path fill="#9e9e9e" d="M25.85 179.02486L27.44375 178.82173Q27.709375 180.16548 28.365625 180.75923Q29.021875 181.35298 29.959375 181.35298Q31.084375 181.35298 31.85 180.58736Q32.615623 179.8061 32.615623 178.66548Q32.615623 177.57173 31.896875 176.8686Q31.19375 176.14986 30.1 176.14986Q29.646875 176.14986 28.975 176.33736L29.146875 174.94673Q29.303125 174.96236 29.4125 174.96236Q30.4125 174.96236 31.225 174.4311Q32.0375 173.89986 32.0375 172.8061Q32.0375 171.9311 31.44375 171.3686Q30.85 170.79048 29.928125 170.79048Q29.00625 170.79048 28.38125 171.3686Q27.771875 171.94673 27.6 173.1186L26.021875 172.83736Q26.303125 171.2436 27.334375 170.3686Q28.365625 169.4936 29.896875 169.4936Q30.94375 169.4936 31.834375 169.94673Q32.725 170.39986 33.19375 171.1811Q33.6625 171.96236 33.6625 172.83736Q33.6625 173.6811 33.209373 174.3686Q32.771873 175.04048 31.88125 175.44673Q33.021873 175.71236 33.646873 176.5561Q34.2875 177.38423 34.2875 178.6186Q34.2875 180.3061 33.053123 181.4936Q31.834375 182.66548 29.959375 182.66548Q28.25625 182.66548 27.13125 181.64986Q26.021875 180.63423 25.85 179.02486ZM41.803123 182.4311L40.225 182.4311L40.225 172.35298Q39.646873 172.89986 38.725 173.44673Q37.803123 173.97798 37.053123 174.25923L37.053123 172.72798Q38.38125 172.10298 39.38125 171.21236Q40.38125 170.32173 40.7875 169.4936L41.803123 169.4936L41.803123 182.4311ZM46.740623 182.4311L46.740623 180.63423L48.5375 180.63423L48.5375 182.4311L46.740623 182.4311ZM55.9125 182.4311L55.9125 179.35298L50.334373 179.35298L50.334373 177.89986L56.209373 169.54048L57.50625 169.54048L57.50625 177.89986L59.240623 177.89986L59.240623 179.35298L57.50625 179.35298L57.50625 182.4311L55.9125 182.4311ZM55.9125 177.89986L55.9125 172.08736L51.88125 177.89986L55.9125 177.89986ZM61.146873 172.63423Q61.146873 171.25923 61.834373 170.29048Q62.5375 169.32173 63.85 169.32173Q65.06875 169.32173 65.86562 170.19673Q66.6625 171.0561 66.6625 172.7436Q66.6625 174.3686 65.85 175.25923Q65.05312 176.13423 63.865623 176.13423Q62.709373 176.13423 61.928123 175.27486Q61.146873 174.39986 61.146873 172.63423ZM63.896873 170.41548Q63.303123 170.41548 62.9125 170.9311Q62.521873 171.4311 62.521873 172.79048Q62.521873 174.04048 62.9125 174.54048Q63.31875 175.04048 63.896873 175.04048Q64.49062 175.04048 64.88125 174.54048Q65.27187 174.02486 65.27187 172.6811Q65.27187 171.4311 64.88125 170.9311Q64.49062 170.41548 63.896873 170.41548ZM63.9125 182.89986L70.95937 169.32173L72.24062 169.32173L65.20937 182.89986L63.9125 182.89986ZM69.475 179.39986Q69.475 178.02486 70.1625 177.0561Q70.86562 176.08736 72.19375 176.08736Q73.4125 176.08736 74.19375 176.96236Q74.99062 177.82173 74.99062 179.50923Q74.99062 181.13423 74.19375 182.02486Q73.39687 182.89986 72.20937 182.89986Q71.0375 182.89986 70.25625 182.02486Q69.475 181.14986 69.475 179.39986ZM72.24062 177.1811Q71.64687 177.1811 71.25625 177.69673Q70.86562 178.19673 70.86562 179.57173Q70.86562 180.79048 71.25625 181.3061Q71.64687 181.82173 72.225 181.82173Q72.83437 181.82173 73.225 181.3061Q73.61562 180.79048 73.61562 179.44673Q73.61562 178.19673 73.225 177.69673Q72.83437 177.1811 72.24062 177.1811Z" fill-rule="nonzero"/><path stroke="#757575" stroke-width="1.0" stroke-linecap="butt" d="M25.1 163.9311L123.46667 163.9311L171.95778 163.9311" fill-rule="nonzero"/><path fill="#9e9e9e" d="M173.95778 163.9311C173.95778 162.82654 173.06235 161.9311 171.95778 161.9311C170.85321 161.9311 169.95778 162.82654 169.95778 163.9311C169.95778 165.03569 170.85321 165.9311 171.95778 165.9311C173.06235 165.9311 173.95778 165.03569 173.95778 163.9311" fill-rule="nonzero"/><path fill="#1a1a1a" d="M26.584375 305.9L26.584375 293.00937L35.271873 293.00937L35.271873 294.54062L28.2875 294.54062L28.2875 298.525L34.334373 298.525L34.334373 300.04062L28.2875 300.04062L28.2875 305.9L26.584375 305.9ZM36.69375 301.22812Q36.69375 298.63437 38.146873 297.38437Q39.35 296.35312 41.06875 296.35312Q43.00625 296.35312 44.225 297.61874Q45.44375 298.88437 45.44375 301.10312Q45.44375 302.9 44.896873 303.93124Q44.365623 304.9625 43.334373 305.54062Q42.303123 306.11874 41.06875 306.11874Q39.115623 306.11874 37.896873 304.86874Q36.69375 303.60312 36.69375 301.22812ZM38.31875 301.22812Q38.31875 303.025 39.1 303.91562Q39.88125 304.80624 41.06875 304.80624Q42.25625 304.80624 43.0375 303.91562Q43.81875 303.00937 43.81875 301.18124Q43.81875 299.44687 43.021873 298.55624Q42.240623 297.66562 41.06875 297.66562Q39.88125 297.66562 39.1 298.55624Q38.31875 299.44687 38.31875 301.22812ZM47.2875 305.9L47.2875 296.57187L48.709373 296.57187L48.709373 297.9Q49.740623 296.35312 51.678123 296.35312Q52.521873 296.35312 53.225 296.66562Q53.94375 296.9625 54.2875 297.4625Q54.646873 297.94687 54.7875 298.61874Q54.865623 299.05624 54.865623 300.16562L54.865623 305.9L53.2875 305.9L53.2875 300.22812Q53.2875 299.25937 53.1 298.775Q52.928123 298.29062 52.44375 298.00937Q51.975 297.72812 51.35 297.72812Q50.334373 297.72812 49.6 298.36874Q48.865623 299.00937 48.865623 300.80624L48.865623 305.9L47.2875 305.9ZM60.740623 304.47812L60.975 305.88437Q60.303123 306.025 59.771873 306.025Q58.9125 306.025 58.428123 305.75937Q57.959373 305.47812 57.771873 305.04062Q57.584373 304.5875 57.584373 303.16562L57.584373 297.79062L56.4125 297.79062L56.4125 296.57187L57.584373 296.57187L57.584373 294.25937L59.146873 293.30624L59.146873 296.57187L60.740623 296.57187L60.740623 297.79062L59.146873 297.79062L59.146873 303.25937Q59.146873 303.93124 59.225 304.13437Q59.31875 304.32187 59.50625 304.43124Q59.69375 304.54062 60.053123 304.54062Q60.303123 304.54062 60.740623 304.47812ZM61.646873 303.11874L63.225 302.86874Q63.35 303.80624 63.94375 304.30624Q64.55312 304.80624 65.63125 304.80624Q66.725 304.80624 67.25625 304.36874Q67.7875 303.91562 67.7875 303.32187Q67.7875 302.79062 67.31875 302.47812Q66.99062 302.275 65.69375 301.94687Q63.959373 301.50937 63.2875 301.19687Q62.615623 300.86874 62.25625 300.30624Q61.9125 299.72812 61.9125 299.04062Q61.9125 298.41562 62.19375 297.88437Q62.490623 297.35312 62.975 297.00937Q63.35 296.72812 63.990623 296.54062Q64.63125 296.35312 65.35 296.35312Q66.45937 296.35312 67.2875 296.68124Q68.11562 296.99374 68.50625 297.54062Q68.9125 298.07187 69.05312 298.97812L67.50625 299.18124Q67.39687 298.4625 66.89687 298.05624Q66.39687 297.65 65.475 297.65Q64.38125 297.65 63.9125 298.00937Q63.44375 298.36874 63.44375 298.85312Q63.44375 299.16562 63.646873 299.41562Q63.834373 299.66562 64.24062 299.8375Q64.49062 299.91562 65.64687 300.24374Q67.31875 300.68124 67.975 300.97812Q68.64687 301.25937 69.02187 301.80624Q69.4125 302.35312 69.4125 303.15Q69.4125 303.94687 68.94375 304.65Q68.49062 305.35312 67.61562 305.74374Q66.74062 306.11874 65.64687 306.11874Q63.81875 306.11874 62.865623 305.36874Q61.9125 304.60312 61.646873 303.11874Z" fill-rule="nonzero"/><path fill="#9e9e9e" d="M25.85 327.49374L27.44375 327.29062Q27.709375 328.63437 28.365625 329.22812Q29.021875 329.82187 29.959375 329.82187Q31.084375 329.82187 31.85 329.05624Q32.615623 328.275 32.615623 327.13437Q32.615623 326.04062 31.896875 325.3375Q31.19375 324.61874 30.1 324.61874Q29.646875 324.61874 28.975 324.80624L29.146875 323.41562Q29.303125 323.43124 29.4125 323.43124Q30.4125 323.43124 31.225 322.9Q32.0375 322.36874 32.0375 321.275Q32.0375 320.4 31.44375 319.8375Q30.85 319.25937 29.928125 319.25937Q29.00625 319.25937 28.38125 319.8375Q27.771875 320.41562 27.6 321.5875L26.021875 321.30624Q26.303125 319.7125 27.334375 318.8375Q28.365625 317.9625 29.896875 317.9625Q30.94375 317.9625 31.834375 318.41562Q32.725 318.86874 33.19375 319.65Q33.6625 320.43124 33.6625 321.30624Q33.6625 322.15 33.209373 322.8375Q32.771873 323.50937 31.88125 323.91562Q33.021873 324.18124 33.646873 325.025Q34.2875 325.85312 34.2875 327.0875Q34.2875 328.775 33.053123 329.9625Q31.834375 331.13437 29.959375 331.13437Q28.25625 331.13437 27.13125 330.11874Q26.021875 329.10312 25.85 327.49374ZM36.740623 330.9L36.740623 329.10312L38.5375 329.10312L38.5375 330.9L36.740623 330.9ZM41.084373 327.91562L42.6 327.775Q42.803123 328.85312 43.334373 329.3375Q43.88125 329.82187 44.740623 329.82187Q45.475 329.82187 46.021873 329.49374Q46.56875 329.15 46.9125 328.60312Q47.271873 328.04062 47.50625 327.0875Q47.740623 326.13437 47.740623 325.15Q47.740623 325.04062 47.740623 324.8375Q47.25625 325.5875 46.428123 326.05624Q45.615623 326.525 44.6625 326.525Q43.06875 326.525 41.959373 325.36874Q40.85 324.2125 40.85 322.30624Q40.85 320.35312 42.00625 319.16562Q43.1625 317.9625 44.896873 317.9625Q46.1625 317.9625 47.19375 318.65Q48.240623 319.32187 48.771873 320.57187Q49.31875 321.82187 49.31875 324.19687Q49.31875 326.66562 48.771873 328.13437Q48.240623 329.5875 47.178123 330.35312Q46.13125 331.11874 44.709373 331.11874Q43.19375 331.11874 42.225 330.29062Q41.271873 329.44687 41.084373 327.91562ZM47.56875 322.22812Q47.56875 320.86874 46.834373 320.07187Q46.115623 319.275 45.1 319.275Q44.0375 319.275 43.25625 320.13437Q42.475 320.99374 42.475 322.36874Q42.475 323.60312 43.209373 324.36874Q43.959373 325.13437 45.053123 325.13437Q46.146873 325.13437 46.85 324.36874Q47.56875 323.60312 47.56875 322.22812ZM51.146873 321.10312Q51.146873 319.72812 51.834373 318.75937Q52.5375 317.79062 53.85 317.79062Q55.06875 317.79062 55.865623 318.66562Q56.6625 319.525 56.6625 321.2125Q56.6625 322.8375 55.85 323.72812Q55.053123 324.60312 53.865623 324.60312Q52.709373 324.60312 51.928123 323.74374Q51.146873 322.86874 51.146873 321.10312ZM53.896873 318.88437Q53.303123 318.88437 52.9125 319.4Q52.521873 319.9 52.521873 321.25937Q52.521873 322.50937 52.9125 323.00937Q53.31875 323.50937 53.896873 323.50937Q54.490623 323.50937 54.88125 323.00937Q55.271873 322.49374 55.271873 321.15Q55.271873 319.9 54.88125 319.4Q54.490623 318.88437 53.896873 318.88437ZM53.9125 331.36874L60.959373 317.79062L62.240623 317.79062L55.209373 331.36874L53.9125 331.36874ZM59.475 327.86874Q59.475 326.49374 60.1625 325.525Q60.865623 324.55624 62.19375 324.55624Q63.4125 324.55624 64.19375 325.43124Q64.99062 326.29062 64.99062 327.97812Q64.99062 329.60312 64.19375 330.49374Q63.396873 331.36874 62.209373 331.36874Q61.0375 331.36874 60.25625 330.49374Q59.475 329.61874 59.475 327.86874ZM62.240623 325.65Q61.646873 325.65 61.25625 326.16562Q60.865623 326.66562 60.865623 328.04062Q60.865623 329.25937 61.25625 329.775Q61.646873 330.29062 62.225 330.29062Q62.834373 330.29062 63.225 329.775Q63.615623 329.25937 63.615623 327.91562Q63.615623 326.66562 63.225 326.16562Q62.834373 325.65 62.240623 325.65Z" fill-rule="nonzero"/><path stroke="#757575" stroke-width="1.0" stroke-linecap="butt" d="M25.1 312.4L123.46667 312.4L166.25116 369.59598" fill-rule="nonzero"/><path fill="#9e9e9e" d="M168.25116 369.59598C168.25116 368.4914 167.35573 367.59598 166.25116 367.59598C165.14659 367.59598 164.25116 368.4914 164.25116 369.59598C164.25116 370.70053 165.14659 371.59598 166.25116 371.59598C167.35573 371.59598 168.25116 370.70053 168.25116 369.59598" fill-rule="nonzero"/><path fill="#1a1a1a" d="M35.678123 348.38437L37.38125 348.80624Q36.85 350.91562 35.459373 352.025Q34.06875 353.11874 32.053123 353.11874Q29.975 353.11874 28.6625 352.275Q27.365625 351.41562 26.678125 349.82187Q25.990625 348.2125 25.990625 346.35312Q25.990625 344.35312 26.75625 342.85312Q27.5375 341.35312 28.959375 340.57187Q30.38125 339.79062 32.084373 339.79062Q34.00625 339.79062 35.31875 340.775Q36.646873 341.75937 37.1625 343.54062L35.490623 343.94687Q35.0375 342.54062 34.178123 341.9Q33.334373 341.25937 32.0375 341.25937Q30.553125 341.25937 29.553125 341.97812Q28.56875 342.68124 28.1625 343.88437Q27.75625 345.07187 27.75625 346.35312Q27.75625 347.99374 28.225 349.22812Q28.709375 350.44687 29.725 351.05624Q30.740625 351.66562 31.9125 351.66562Q33.35 351.66562 34.334373 350.8375Q35.334373 350.00937 35.678123 348.38437ZM38.9125 348.75937L40.521873 348.61874Q40.63125 349.5875 41.0375 350.2125Q41.459373 350.82187 42.334373 351.2125Q43.225 351.5875 44.31875 351.5875Q45.303123 351.5875 46.0375 351.30624Q46.7875 351.00937 47.146873 350.50937Q47.521873 349.99374 47.521873 349.4Q47.521873 348.79062 47.1625 348.3375Q46.81875 347.88437 46.00625 347.5875Q45.490623 347.38437 43.709373 346.9625Q41.94375 346.525 41.225 346.15Q40.303123 345.66562 39.85 344.94687Q39.396873 344.22812 39.396873 343.35312Q39.396873 342.36874 39.94375 341.525Q40.50625 340.68124 41.56875 340.24374Q42.63125 339.79062 43.94375 339.79062Q45.365623 339.79062 46.459373 340.25937Q47.553123 340.7125 48.146873 341.61874Q48.740623 342.50937 48.771873 343.65L47.146873 343.775Q47.00625 342.54062 46.240623 341.91562Q45.490623 341.29062 44.00625 341.29062Q42.459373 341.29062 41.740623 341.86874Q41.0375 342.43124 41.0375 343.22812Q41.0375 343.93124 41.553123 344.36874Q42.0375 344.82187 44.115623 345.29062Q46.19375 345.75937 46.975 346.11874Q48.1 346.63437 48.63125 347.43124Q49.1625 348.22812 49.1625 349.25937Q49.1625 350.29062 48.56875 351.19687Q47.990623 352.10312 46.88125 352.61874Q45.7875 353.11874 44.396873 353.11874Q42.646873 353.11874 41.459373 352.61874Q40.2875 352.10312 39.615623 351.0875Q38.94375 350.05624 38.9125 348.75937ZM50.9125 348.75937L52.521873 348.61874Q52.63125 349.5875 53.0375 350.2125Q53.459373 350.82187 54.334373 351.2125Q55.225 351.5875 56.31875 351.5875Q57.303123 351.5875 58.0375 351.30624Q58.7875 351.00937 59.146873 350.50937Q59.521873 349.99374 59.521873 349.4Q59.521873 348.79062 59.1625 348.3375Q58.81875 347.88437 58.00625 347.5875Q57.490623 347.38437 55.709373 346.9625Q53.94375 346.525 53.225 346.15Q52.303123 345.66562 51.85 344.94687Q51.396873 344.22812 51.396873 343.35312Q51.396873 342.36874 51.94375 341.525Q52.50625 340.68124 53.56875 340.24374Q54.63125 339.79062 55.94375 339.79062Q57.365623 339.79062 58.459373 340.25937Q59.553123 340.7125 60.146873 341.61874Q60.740623 342.50937 60.771873 343.65L59.146873 343.775Q59.00625 342.54062 58.240623 341.91562Q57.490623 341.29062 56.00625 341.29062Q54.459373 341.29062 53.740623 341.86874Q53.0375 342.43124 53.0375 343.22812Q53.0375 343.93124 53.553123 344.36874Q54.0375 344.82187 56.115623 345.29062Q58.19375 345.75937 58.975 346.11874Q60.1 346.63437 60.63125 347.43124Q61.1625 348.22812 61.1625 349.25937Q61.1625 350.29062 60.56875 351.19687Q59.990623 352.10312 58.88125 352.61874Q57.7875 353.11874 56.396873 353.11874Q54.646873 353.11874 53.459373 352.61874Q52.2875 352.10312 51.615623 351.0875Q50.94375 350.05624 50.9125 348.75937Z" fill-rule="nonzero"/><path fill="#9e9e9e" d="M34.1625 376.38437L34.1625 377.9L25.646875 377.9Q25.63125 377.32187 25.834375 376.80624Q26.1625 375.93124 26.865625 375.0875Q27.584375 374.24374 28.94375 373.13437Q31.0375 371.41562 31.771875 370.41562Q32.521873 369.4 32.521873 368.50937Q32.521873 367.55624 31.85 366.91562Q31.178125 366.275 30.1 366.275Q28.94375 366.275 28.25625 366.9625Q27.584375 367.65 27.56875 368.85312L25.94375 368.68124Q26.115625 366.86874 27.19375 365.91562Q28.2875 364.9625 30.13125 364.9625Q31.975 364.9625 33.053123 365.99374Q34.146873 367.025 34.146873 368.54062Q34.146873 369.30624 33.81875 370.05624Q33.50625 370.80624 32.771873 371.63437Q32.0375 372.4625 30.334375 373.9Q28.9125 375.10312 28.50625 375.525Q28.1 375.94687 27.85 376.38437L34.1625 376.38437ZM36.740623 377.9L36.740623 376.10312L38.5375 376.10312L38.5375 377.9L36.740623 377.9ZM46.803123 377.9L45.225 377.9L45.225 367.82187Q44.646873 368.36874 43.725 368.91562Q42.803123 369.44687 42.053123 369.72812L42.053123 368.19687Q43.38125 367.57187 44.38125 366.68124Q45.38125 365.79062 45.7875 364.9625L46.803123 364.9625L46.803123 377.9ZM51.146873 368.10312Q51.146873 366.72812 51.834373 365.75937Q52.5375 364.79062 53.85 364.79062Q55.06875 364.79062 55.865623 365.66562Q56.6625 366.525 56.6625 368.2125Q56.6625 369.8375 55.85 370.72812Q55.053123 371.60312 53.865623 371.60312Q52.709373 371.60312 51.928123 370.74374Q51.146873 369.86874 51.146873 368.10312ZM53.896873 365.88437Q53.303123 365.88437 52.9125 366.4Q52.521873 366.9 52.521873 368.25937Q52.521873 369.50937 52.9125 370.00937Q53.31875 370.50937 53.896873 370.50937Q54.490623 370.50937 54.88125 370.00937Q55.271873 369.49374 55.271873 368.15Q55.271873 366.9 54.88125 366.4Q54.490623 365.88437 53.896873 365.88437ZM53.9125 378.36874L60.959373 364.79062L62.240623 364.79062L55.209373 378.36874L53.9125 378.36874ZM59.475 374.86874Q59.475 373.49374 60.1625 372.525Q60.865623 371.55624 62.19375 371.55624Q63.4125 371.55624 64.19375 372.43124Q64.99062 373.29062 64.99062 374.97812Q64.99062 376.60312 64.19375 377.49374Q63.396873 378.36874 62.209373 378.36874Q61.0375 378.36874 60.25625 377.49374Q59.475 376.61874 59.475 374.86874ZM62.240623 372.65Q61.646873 372.65 61.25625 373.16562Q60.865623 373.66562 60.865623 375.04062Q60.865623 376.25937 61.25625 376.775Q61.646873 377.29062 62.225 377.29062Q62.834373 377.29062 63.225 376.775Q63.615623 376.25937 63.615623 374.91562Q63.615623 373.66562 63.225 373.16562Q62.834373 372.65 62.240623 372.65Z" fill-rule="nonzero"/><path stroke="#757575" stroke-width="1.0" stroke-linecap="butt" d="M25.1 359.4L123.46667 359.4L187.6911 399.5277" fill-rule="nonzero"/><path fill="#9e9e9e" d="M189.6911 399.5277C189.6911 398.42316 188.79567 397.5277 187.6911 397.5277C186.58653 397.5277 185.6911 398.42316 185.6911 399.5277C185.6911 400.6323 186.58653 401.5277 187.6911 401.5277C188.79567 401.5277 189.6911 400.6323 189.6911 399.5277" fill-rule="nonzero"/><path fill="#1a1a1a" d="M26.5375 399.9L26.5375 387.00937L28.240625 387.00937L28.240625 392.30624L34.94375 392.30624L34.94375 387.00937L36.646873 387.00937L36.646873 399.9L34.94375 399.9L34.94375 393.82187L28.240625 393.82187L28.240625 399.9L26.5375 399.9ZM42.771873 399.9L42.771873 388.54062L38.521873 388.54062L38.521873 387.00937L48.740623 387.00937L48.740623 388.54062L44.475 388.54062L44.475 399.9L42.771873 399.9ZM50.44375 399.9L50.44375 387.00937L53.00625 387.00937L56.053123 396.13437Q56.475 397.41562 56.6625 398.04062Q56.88125 397.3375 57.35 395.97812L60.44375 387.00937L62.725 387.00937L62.725 399.9L61.084373 399.9L61.084373 389.11874L57.35 399.9L55.803123 399.9L52.084373 388.93124L52.084373 399.9L50.44375 399.9ZM65.4125 399.9L65.4125 387.00937L67.13125 387.00937L67.13125 398.38437L73.475 398.38437L73.475 399.9L65.4125 399.9Z" fill-rule="nonzero"/><path fill="#9e9e9e" d="M25.85 421.49374L27.44375 421.29062Q27.709375 422.63437 28.365625 423.22812Q29.021875 423.82187 29.959375 423.82187Q31.084375 423.82187 31.85 423.05624Q32.615623 422.275 32.615623 421.13437Q32.615623 420.04062 31.896875 419.3375Q31.19375 418.61874 30.1 418.61874Q29.646875 418.61874 28.975 418.80624L29.146875 417.41562Q29.303125 417.43124 29.4125 417.43124Q30.4125 417.43124 31.225 416.9Q32.0375 416.36874 32.0375 415.275Q32.0375 414.4 31.44375 413.8375Q30.85 413.25937 29.928125 413.25937Q29.00625 413.25937 28.38125 413.8375Q27.771875 414.41562 27.6 415.5875L26.021875 415.30624Q26.303125 413.7125 27.334375 412.8375Q28.365625 411.9625 29.896875 411.9625Q30.94375 411.9625 31.834375 412.41562Q32.725 412.86874 33.19375 413.65Q33.6625 414.43124 33.6625 415.30624Q33.6625 416.15 33.209373 416.8375Q32.771873 417.50937 31.88125 417.91562Q33.021873 418.18124 33.646873 419.025Q34.2875 419.85312 34.2875 421.0875Q34.2875 422.775 33.053123 423.9625Q31.834375 425.13437 29.959375 425.13437Q28.25625 425.13437 27.13125 424.11874Q26.021875 423.10312 25.85 421.49374ZM36.740623 424.9L36.740623 423.10312L38.5375 423.10312L38.5375 424.9L36.740623 424.9ZM40.85 421.49374L42.44375 421.29062Q42.709373 422.63437 43.365623 423.22812Q44.021873 423.82187 44.959373 423.82187Q46.084373 423.82187 46.85 423.05624Q47.615623 422.275 47.615623 421.13437Q47.615623 420.04062 46.896873 419.3375Q46.19375 418.61874 45.1 418.61874Q44.646873 418.61874 43.975 418.80624L44.146873 417.41562Q44.303123 417.43124 44.4125 417.43124Q45.4125 417.43124 46.225 416.9Q47.0375 416.36874 47.0375 415.275Q47.0375 414.4 46.44375 413.8375Q45.85 413.25937 44.928123 413.25937Q44.00625 413.25937 43.38125 413.8375Q42.771873 414.41562 42.6 415.5875L41.021873 415.30624Q41.303123 413.7125 42.334373 412.8375Q43.365623 411.9625 44.896873 411.9625Q45.94375 411.9625 46.834373 412.41562Q47.725 412.86874 48.19375 413.65Q48.6625 414.43124 48.6625 415.30624Q48.6625 416.15 48.209373 416.8375Q47.771873 417.50937 46.88125 417.91562Q48.021873 418.18124 48.646873 419.025Q49.2875 419.85312 49.2875 421.0875Q49.2875 422.775 48.053123 423.9625Q46.834373 425.13437 44.959373 425.13437Q43.25625 425.13437 42.13125 424.11874Q41.021873 423.10312 40.85 421.49374ZM51.146873 415.10312Q51.146873 413.72812 51.834373 412.75937Q52.5375 411.79062 53.85 411.79062Q55.06875 411.79062 55.865623 412.66562Q56.6625 413.525 56.6625 415.2125Q56.6625 416.8375 55.85 417.72812Q55.053123 418.60312 53.865623 418.60312Q52.709373 418.60312 51.928123 417.74374Q51.146873 416.86874 51.146873 415.10312ZM53.896873 412.88437Q53.303123 412.88437 52.9125 413.4Q52.521873 413.9 52.521873 415.25937Q52.521873 416.50937 52.9125 417.00937Q53.31875 417.50937 53.896873 417.50937Q54.490623 417.50937 54.88125 417.00937Q55.271873 416.49374 55.271873 415.15Q55.271873 413.9 54.88125 413.4Q54.490623 412.88437 53.896873 412.88437ZM53.9125 425.36874L60.959373 411.79062L62.240623 411.79062L55.209373 425.36874L53.9125 425.36874ZM59.475 421.86874Q59.475 420.49374 60.1625 419.525Q60.865623 418.55624 62.19375 418.55624Q63.4125 418.55624 64.19375 419.43124Q64.99062 420.29062 64.99062 421.97812Q64.99062 423.60312 64.19375 424.49374Q63.396873 425.36874 62.209373 425.36874Q61.0375 425.36874 60.25625 424.49374Q59.475 423.61874 59.475 421.86874ZM62.240623 419.65Q61.646873 419.65 61.25625 420.16562Q60.865623 420.66562 60.865623 422.04062Q60.865623 423.25937 61.25625 423.775Q61.646873 424.29062 62.225 424.29062Q62.834373 424.29062 63.225 423.775Q63.615623 423.25937 63.615623 421.91562Q63.615623 420.66562 63.225 420.16562Q62.834373 419.65 62.240623 419.65Z" fill-rule="nonzero"/><path stroke="#757575" stroke-width="1.0" stroke-linecap="butt" d="M25.1 406.4L123.46667 406.4L211.29337 422.43564" fill-rule="nonzero"/><path fill="#9e9e9e" d="M213.29337 422.43564C213.29337 421.3311 212.39793 420.43564 211.29337 420.43564C210.1888 420.43564 209.29337 421.3311 209.29337 422.43564C209.29337 423.54022 210.1888 424.43564 211.29337 424.43564C212.39793 424.43564 213.29337 423.54022 213.29337 422.43564" fill-rule="nonzero"/><path fill="#1a1a1a" d="M25.615625 443.24374L27.1625 443.025Q27.225 444.50937 27.709375 445.05624Q28.209375 445.60312 29.06875 445.60312Q29.709375 445.60312 30.178125 445.30624Q30.646875 445.00937 30.81875 444.50937Q30.990625 443.99374 30.990625 442.88437L30.990625 434.00937L32.709373 434.00937L32.709373 442.79062Q32.709373 444.41562 32.31875 445.30624Q31.928125 446.18124 31.06875 446.65Q30.225 447.11874 29.084375 447.11874Q27.38125 447.11874 26.475 446.15Q25.584375 445.16562 25.615625 443.24374ZM41.38125 445.74374Q40.50625 446.49374 39.678123 446.80624Q38.865623 447.11874 37.94375 447.11874Q36.396873 447.11874 35.56875 446.36874Q34.75625 445.60312 34.75625 444.43124Q34.75625 443.75937 35.06875 443.19687Q35.38125 442.61874 35.88125 442.275Q36.38125 441.93124 37.021873 441.75937Q37.490623 441.63437 38.428123 441.525Q40.334373 441.29062 41.240623 440.97812Q41.25625 440.65 41.25625 440.55624Q41.25625 439.60312 40.803123 439.19687Q40.19375 438.66562 39.00625 438.66562Q37.88125 438.66562 37.35 439.05624Q36.81875 439.44687 36.56875 440.44687L35.021873 440.22812Q35.240623 439.22812 35.709373 438.61874Q36.19375 438.00937 37.1 437.68124Q38.021873 437.35312 39.240623 437.35312Q40.428123 437.35312 41.178123 437.63437Q41.928123 437.91562 42.271873 438.35312Q42.63125 438.775 42.771873 439.41562Q42.85 439.82187 42.85 440.88437L42.85 442.99374Q42.85 445.19687 42.94375 445.79062Q43.053123 446.36874 43.35 446.9L41.69375 446.9Q41.44375 446.4 41.38125 445.74374ZM41.240623 442.2125Q40.38125 442.57187 38.6625 442.80624Q37.69375 442.94687 37.2875 443.13437Q36.88125 443.30624 36.6625 443.65Q36.44375 443.97812 36.44375 444.4Q36.44375 445.025 36.9125 445.44687Q37.396873 445.86874 38.31875 445.86874Q39.240623 445.86874 39.94375 445.47812Q40.6625 445.07187 40.990623 444.38437Q41.240623 443.8375 41.240623 442.79062L41.240623 442.2125ZM47.88125 446.9L44.334373 437.57187L46.00625 437.57187L48.00625 443.15Q48.334373 444.05624 48.6 445.04062Q48.81875 444.29062 49.19375 443.25937L51.25625 437.57187L52.896873 437.57187L49.35 446.9L47.88125 446.9ZM60.38125 445.74374Q59.50625 446.49374 58.678123 446.80624Q57.865623 447.11874 56.94375 447.11874Q55.396873 447.11874 54.56875 446.36874Q53.75625 445.60312 53.75625 444.43124Q53.75625 443.75937 54.06875 443.19687Q54.38125 442.61874 54.88125 442.275Q55.38125 441.93124 56.021873 441.75937Q56.490623 441.63437 57.428123 441.525Q59.334373 441.29062 60.240623 440.97812Q60.25625 440.65 60.25625 440.55624Q60.25625 439.60312 59.803123 439.19687Q59.19375 438.66562 58.00625 438.66562Q56.88125 438.66562 56.35 439.05624Q55.81875 439.44687 55.56875 440.44687L54.021873 440.22812Q54.240623 439.22812 54.709373 438.61874Q55.19375 438.00937 56.1 437.68124Q57.021873 437.35312 58.240623 437.35312Q59.428123 437.35312 60.178123 437.63437Q60.928123 437.91562 61.271873 438.35312Q61.63125 438.775 61.771873 439.41562Q61.85 439.82187 61.85 440.88437L61.85 442.99374Q61.85 445.19687 61.94375 445.79062Q62.053123 446.36874 62.35 446.9L60.69375 446.9Q60.44375 446.4 60.38125 445.74374ZM60.240623 442.2125Q59.38125 442.57187 57.6625 442.80624Q56.69375 442.94687 56.2875 443.13437Q55.88125 443.30624 55.6625 443.65Q55.44375 443.97812 55.44375 444.4Q55.44375 445.025 55.9125 445.44687Q56.396873 445.86874 57.31875 445.86874Q58.240623 445.86874 58.94375 445.47812Q59.6625 445.07187 59.990623 444.38437Q60.240623 443.8375 60.240623 442.79062L60.240623 442.2125ZM63.9125 442.75937L65.52187 442.61874Q65.63125 443.5875 66.0375 444.2125Q66.45937 444.82187 67.33437 445.2125Q68.225 445.5875 69.31875 445.5875Q70.30312 445.5875 71.0375 445.30624Q71.7875 445.00937 72.14687 444.50937Q72.52187 443.99374 72.52187 443.4Q72.52187 442.79062 72.1625 442.3375Q71.81875 441.88437 71.00625 441.5875Q70.49062 441.38437 68.70937 440.9625Q66.94375 440.525 66.225 440.15Q65.30312 439.66562 64.85 438.94687Q64.39687 438.22812 64.39687 437.35312Q64.39687 436.36874 64.94375 435.525Q65.50625 434.68124 66.56875 434.24374Q67.63125 433.79062 68.94375 433.79062Q70.36562 433.79062 71.45937 434.25937Q72.55312 434.7125 73.14687 435.61874Q73.74062 436.50937 73.77187 437.65L72.14687 437.775Q72.00625 436.54062 71.24062 435.91562Q70.49062 435.29062 69.00625 435.29062Q67.45937 435.29062 66.74062 435.86874Q66.0375 436.43124 66.0375 437.22812Q66.0375 437.93124 66.55312 438.36874Q67.0375 438.82187 69.11562 439.29062Q71.19375 439.75937 71.975 440.11874Q73.1 440.63437 73.63125 441.43124Q74.1625 442.22812 74.1625 443.25937Q74.1625 444.29062 73.56875 445.19687Q72.99062 446.10312 71.88125 446.61874Q70.7875 447.11874 69.39687 447.11874Q67.64687 447.11874 66.45937 446.61874Q65.2875 446.10312 64.61562 445.0875Q63.94375 444.05624 63.9125 442.75937ZM82.38125 443.47812L83.92812 443.68124Q83.67812 445.29062 82.63125 446.2125Q81.58437 447.11874 80.05312 447.11874Q78.13125 447.11874 76.95937 445.86874Q75.80312 444.60312 75.80312 442.275Q75.80312 440.75937 76.30312 439.63437Q76.80312 438.49374 77.81875 437.93124Q78.85 437.35312 80.05312 437.35312Q81.58437 437.35312 82.5375 438.13437Q83.50625 438.9 83.7875 440.30624L82.24062 440.54062Q82.02187 439.60312 81.45937 439.13437Q80.9125 438.65 80.11562 438.65Q78.92812 438.65 78.17812 439.50937Q77.42812 440.36874 77.42812 442.22812Q77.42812 444.10312 78.14687 444.9625Q78.86562 445.80624 80.0375 445.80624Q80.95937 445.80624 81.58437 445.24374Q82.20937 444.66562 82.38125 443.47812ZM85.27187 446.9L85.27187 437.57187L86.69375 437.57187L86.69375 438.97812Q87.24062 437.99374 87.69375 437.68124Q88.1625 437.35312 88.70937 437.35312Q89.52187 437.35312 90.33437 437.86874L89.80312 439.3375Q89.20937 438.99374 88.63125 438.99374Q88.11562 438.99374 87.69375 439.30624Q87.2875 439.61874 87.11562 440.16562Q86.85 441.00937 86.85 442.00937L86.85 446.9L85.27187 446.9ZM91.30312 435.8375L91.30312 434.00937L92.88125 434.00937L92.88125 435.8375L91.30312 435.8375ZM91.30312 446.9L91.30312 437.57187L92.88125 437.57187L92.88125 446.9L91.30312 446.9ZM95.2875 450.47812L95.2875 437.57187L96.725 437.57187L96.725 438.775Q97.24062 438.07187 97.88125 437.7125Q98.52187 437.35312 99.42812 437.35312Q100.63125 437.35312 101.5375 437.97812Q102.45937 438.5875 102.92812 439.7125Q103.39687 440.82187 103.39687 442.16562Q103.39687 443.5875 102.88125 444.74374Q102.36562 445.88437 101.38125 446.50937Q100.39687 447.11874 99.31875 447.11874Q98.5375 447.11874 97.89687 446.79062Q97.27187 446.44687 96.86562 445.93124L96.86562 450.47812L95.2875 450.47812ZM96.725 442.29062Q96.725 444.0875 97.44375 444.94687Q98.17812 445.80624 99.20937 445.80624Q100.27187 445.80624 101.02187 444.91562Q101.77187 444.025 101.77187 442.15Q101.77187 440.36874 101.0375 439.47812Q100.30312 438.5875 99.2875 438.5875Q98.27187 438.5875 97.49062 439.54062Q96.725 440.47812 96.725 442.29062ZM108.74062 445.47812L108.975 446.88437Q108.30312 447.025 107.77187 447.025Q106.9125 447.025 106.42812 446.75937Q105.95937 446.47812 105.77187 446.04062Q105.58437 445.5875 105.58437 444.16562L105.58437 438.79062L104.4125 438.79062L104.4125 437.57187L105.58437 437.57187L105.58437 435.25937L107.14687 434.30624L107.14687 437.57187L108.74062 437.57187L108.74062 438.79062L107.14687 438.79062L107.14687 444.25937Q107.14687 444.93124 107.225 445.13437Q107.31875 445.32187 107.50625 445.43124Q107.69375 445.54062 108.05312 445.54062Q108.30312 445.54062 108.74062 445.47812Z" fill-rule="nonzero"/><path fill="#9e9e9e" d="M31.803125 471.9L30.225 471.9L30.225 461.82187Q29.646875 462.36874 28.725 462.91562Q27.803125 463.44687 27.053125 463.72812L27.053125 462.19687Q28.38125 461.57187 29.38125 460.68124Q30.38125 459.79062 30.7875 458.9625L31.803125 458.9625L31.803125 471.9ZM35.85 468.49374L37.44375 468.29062Q37.709373 469.63437 38.365623 470.22812Q39.021873 470.82187 39.959373 470.82187Q41.084373 470.82187 41.85 470.05624Q42.615623 469.275 42.615623 468.13437Q42.615623 467.04062 41.896873 466.3375Q41.19375 465.61874 40.1 465.61874Q39.646873 465.61874 38.975 465.80624L39.146873 464.41562Q39.303123 464.43124 39.4125 464.43124Q40.4125 464.43124 41.225 463.9Q42.0375 463.36874 42.0375 462.275Q42.0375 461.4 41.44375 460.8375Q40.85 460.25937 39.928123 460.25937Q39.00625 460.25937 38.38125 460.8375Q37.771873 461.41562 37.6 462.5875L36.021873 462.30624Q36.303123 460.7125 37.334373 459.8375Q38.365623 458.9625 39.896873 458.9625Q40.94375 458.9625 41.834373 459.41562Q42.725 459.86874 43.19375 460.65Q43.6625 461.43124 43.6625 462.30624Q43.6625 463.15 43.209373 463.8375Q42.771873 464.50937 41.88125 464.91562Q43.021873 465.18124 43.646873 466.025Q44.2875 466.85312 44.2875 468.0875Q44.2875 469.775 43.053123 470.9625Q41.834373 472.13437 39.959373 472.13437Q38.25625 472.13437 37.13125 471.11874Q36.021873 470.10312 35.85 468.49374ZM46.740623 471.9L46.740623 470.10312L48.5375 470.10312L48.5375 471.9L46.740623 471.9ZM53.2875 464.91562Q52.303123 464.55624 51.81875 463.88437Q51.35 463.2125 51.35 462.29062Q51.35 460.88437 52.35 459.93124Q53.365623 458.9625 55.053123 458.9625Q56.740623 458.9625 57.75625 459.94687Q58.7875 460.91562 58.7875 462.32187Q58.7875 463.22812 58.31875 463.9Q57.85 464.55624 56.896873 464.91562Q58.084373 465.30624 58.69375 466.16562Q59.31875 467.025 59.31875 468.2125Q59.31875 469.86874 58.146873 470.99374Q56.975 472.11874 55.06875 472.11874Q53.1625 472.11874 51.990623 470.99374Q50.834373 469.85312 50.834373 468.16562Q50.834373 466.91562 51.459373 466.07187Q52.1 465.2125 53.2875 464.91562ZM52.959373 462.22812Q52.959373 463.15 53.553123 463.72812Q54.146873 464.30624 55.084373 464.30624Q55.990623 464.30624 56.56875 463.72812Q57.1625 463.15 57.1625 462.32187Q57.1625 461.44687 56.553123 460.85312Q55.959373 460.25937 55.06875 460.25937Q54.1625 460.25937 53.553123 460.8375Q52.959373 461.41562 52.959373 462.22812ZM52.459373 468.18124Q52.459373 468.85312 52.771873 469.49374Q53.1 470.11874 53.725 470.47812Q54.365623 470.82187 55.1 470.82187Q56.225 470.82187 56.959373 470.0875Q57.709373 469.35312 57.709373 468.22812Q57.709373 467.0875 56.94375 466.35312Q56.178123 465.60312 55.0375 465.60312Q53.928123 465.60312 53.19375 466.3375Q52.459373 467.07187 52.459373 468.18124ZM61.146873 462.10312Q61.146873 460.72812 61.834373 459.75937Q62.5375 458.79062 63.85 458.79062Q65.06875 458.79062 65.86562 459.66562Q66.6625 460.525 66.6625 462.2125Q66.6625 463.8375 65.85 464.72812Q65.05312 465.60312 63.865623 465.60312Q62.709373 465.60312 61.928123 464.74374Q61.146873 463.86874 61.146873 462.10312ZM63.896873 459.88437Q63.303123 459.88437 62.9125 460.4Q62.521873 460.9 62.521873 462.25937Q62.521873 463.50937 62.9125 464.00937Q63.31875 464.50937 63.896873 464.50937Q64.49062 464.50937 64.88125 464.00937Q65.27187 463.49374 65.27187 462.15Q65.27187 460.9 64.88125 460.4Q64.49062 459.88437 63.896873 459.88437ZM63.9125 472.36874L70.95937 458.79062L72.24062 458.79062L65.20937 472.36874L63.9125 472.36874ZM69.475 468.86874Q69.475 467.49374 70.1625 466.525Q70.86562 465.55624 72.19375 465.55624Q73.4125 465.55624 74.19375 466.43124Q74.99062 467.29062 74.99062 468.97812Q74.99062 470.60312 74.19375 471.49374Q73.39687 472.36874 72.20937 472.36874Q71.0375 472.36874 70.25625 471.49374Q69.475 470.61874 69.475 468.86874ZM72.24062 466.65Q71.64687 466.65 71.25625 467.16562Q70.86562 467.66562 70.86562 469.04062Q70.86562 470.25937 71.25625 470.775Q71.64687 471.29062 72.225 471.29062Q72.83437 471.29062 73.225 470.775Q73.61562 470.25937 73.61562 468.91562Q73.61562 467.66562 73.225 467.16562Q72.83437 466.65 72.24062 466.65Z" fill-rule="nonzero"/><path stroke="#757575" stroke-width="1.0" stroke-linecap="butt" d="M25.1 453.4L123.46667 453.4L305.7659 464.42245" fill-rule="nonzero"/><path fill="#9e9e9e" d="M307.7659 464.42245C307.7659 463.31787 306.87048 462.42245 305.7659 462.42245C304.66135 462.42245 303.7659 463.31787 303.7659 464.42245C303.7659 465.527 304.66135 466.42245 305.7659 466.42245C306.87048 466.42245 307.7659 465.527 307.7659 464.42245" fill-rule="nonzero"/><path fill="#1a1a1a" d="M603.97815 237.35077L598.97815 224.46014L600.8219 224.46014L604.1813 233.81952Q604.5719 234.94452 604.85315 235.9289Q605.15 234.88202 605.54065 233.81952L609.025 224.46014L610.7594 224.46014L605.72815 237.35077L603.97815 237.35077ZM612.10315 226.28827L612.10315 224.46014L613.6813 224.46014L613.6813 226.28827L612.10315 226.28827ZM612.10315 237.35077L612.10315 228.02264L613.6813 228.02264L613.6813 237.35077L612.10315 237.35077ZM622.15 237.35077L622.15 236.1789Q621.2594 237.56952 619.525 237.56952Q618.41565 237.56952 617.47815 236.96014Q616.54065 236.33514 616.025 235.2414Q615.5094 234.13202 615.5094 232.69452Q615.5094 231.28827 615.97815 230.16327Q616.4469 229.02264 617.3688 228.41327Q618.3063 227.8039 619.4625 227.8039Q620.3063 227.8039 620.9625 228.16327Q621.6188 228.52264 622.04065 229.08514L622.04065 224.46014L623.60315 224.46014L623.60315 237.35077L622.15 237.35077ZM617.1344 232.69452Q617.1344 234.4914 617.8844 235.38202Q618.65 236.25702 619.6813 236.25702Q620.7125 236.25702 621.4313 235.41327Q622.16565 234.56952 622.16565 232.81952Q622.16565 230.91327 621.4313 230.02264Q620.6969 229.1164 619.6188 229.1164Q618.5563 229.1164 617.8375 229.97577Q617.1344 230.83514 617.1344 232.69452ZM632.47815 234.35077L634.1188 234.5539Q633.72815 235.97577 632.6813 236.77264Q631.6344 237.56952 630.0094 237.56952Q627.9625 237.56952 626.7594 236.3039Q625.5563 235.03827 625.5563 232.75702Q625.5563 230.41327 626.7594 229.1164Q627.97815 227.8039 629.91565 227.8039Q631.79065 227.8039 632.97815 229.08514Q634.16565 230.35077 634.16565 232.66327Q634.16565 232.8039 634.15 233.08514L627.1969 233.08514Q627.275 234.63202 628.0563 235.44452Q628.85315 236.25702 630.0094 236.25702Q630.8844 236.25702 631.4938 235.8039Q632.1188 235.35077 632.47815 234.35077ZM627.275 231.78827L632.4938 231.78827Q632.3844 230.6164 631.9 230.02264Q631.1344 229.10077 629.9313 229.10077Q628.85315 229.10077 628.10315 229.83514Q627.3688 230.56952 627.275 231.78827ZM635.4938 232.6789Q635.4938 230.08514 636.9469 228.83514Q638.15 227.8039 639.8688 227.8039Q641.8063 227.8039 643.025 229.06952Q644.2438 230.33514 644.2438 232.5539Q644.2438 234.35077 643.6969 235.38202Q643.16565 236.41327 642.1344 236.9914Q641.10315 237.56952 639.8688 237.56952Q637.91565 237.56952 636.6969 236.31952Q635.4938 235.0539 635.4938 232.6789ZM637.1188 232.6789Q637.1188 234.47577 637.9 235.3664Q638.6813 236.25702 639.8688 236.25702Q641.0563 236.25702 641.8375 235.3664Q642.6188 234.46014 642.6188 232.63202Q642.6188 230.89764 641.8219 230.00702Q641.04065 229.1164 639.8688 229.1164Q638.6813 229.1164 637.9 230.00702Q637.1188 230.89764 637.1188 232.6789Z" fill-rule="nonzero"/><path fill="#9e9e9e" d="M599.7125 262.35077L599.7125 259.27264L594.1344 259.27264L594.1344 257.81952L600.0094 249.46014L601.3063 249.46014L601.3063 257.81952L603.04065 257.81952L603.04065 259.27264L601.3063 259.27264L601.3063 262.35077L599.7125 262.35077ZM599.7125 257.81952L599.7125 252.00702L595.6813 257.81952L599.7125 257.81952ZM604.65 258.97577L606.3063 258.83514Q606.4938 260.0539 607.16565 260.66327Q607.8375 261.27264 608.79065 261.27264Q609.9313 261.27264 610.7125 260.41327Q611.5094 259.5539 611.5094 258.1164Q611.5094 256.77264 610.7438 255.9914Q609.9938 255.21014 608.7594 255.21014Q607.9938 255.21014 607.3688 255.5539Q606.7594 255.89764 606.41565 256.46014L604.9313 256.25702L606.1813 249.64764L612.5875 249.64764L612.5875 251.14764L607.4469 251.14764L606.7438 254.6164Q607.91565 253.8039 609.1813 253.8039Q610.8688 253.8039 612.025 254.97577Q613.1969 256.14764 613.1969 257.97577Q613.1969 259.72577 612.16565 261.00702Q610.9313 262.56952 608.79065 262.56952Q607.025 262.56952 605.91565 261.58514Q604.8063 260.60077 604.65 258.97577ZM615.54065 262.35077L615.54065 260.5539L617.3375 260.5539L617.3375 262.35077L615.54065 262.35077ZM619.65 258.97577L621.3063 258.83514Q621.4938 260.0539 622.16565 260.66327Q622.8375 261.27264 623.79065 261.27264Q624.9313 261.27264 625.7125 260.41327Q626.5094 259.5539 626.5094 258.1164Q626.5094 256.77264 625.7438 255.9914Q624.9938 255.21014 623.7594 255.21014Q622.9938 255.21014 622.3688 255.5539Q621.7594 255.89764 621.41565 256.46014L619.9313 256.25702L621.1813 249.64764L627.5875 249.64764L627.5875 251.14764L622.4469 251.14764L621.7438 254.6164Q622.91565 253.8039 624.1813 253.8039Q625.8688 253.8039 627.025 254.97577Q628.1969 256.14764 628.1969 257.97577Q628.1969 259.72577 627.16565 261.00702Q625.9313 262.56952 623.79065 262.56952Q622.025 262.56952 620.91565 261.58514Q619.8063 260.60077 619.65 258.97577ZM629.9469 252.5539Q629.9469 251.1789 630.6344 250.21014Q631.3375 249.2414 632.65 249.2414Q633.8688 249.2414 634.66565 250.1164Q635.4625 250.97577 635.4625 252.66327Q635.4625 254.28827 634.65 255.1789Q633.85315 256.0539 632.66565 256.0539Q631.5094 256.0539 630.72815 255.19452Q629.9469 254.31952 629.9469 252.5539ZM632.6969 250.33514Q632.10315 250.33514 631.7125 250.85077Q631.3219 251.35077 631.3219 252.71014Q631.3219 253.96014 631.7125 254.46014Q632.1188 254.96014 632.6969 254.96014Q633.29065 254.96014 633.6813 254.46014Q634.0719 253.94452 634.0719 252.60077Q634.0719 251.35077 633.6813 250.85077Q633.29065 250.33514 632.6969 250.33514ZM632.7125 262.81952L639.7594 249.2414L641.04065 249.2414L634.0094 262.81952L632.7125 262.81952ZM638.275 259.31952Q638.275 257.94452 638.9625 256.97577Q639.66565 256.00702 640.9938 256.00702Q642.2125 256.00702 642.9938 256.88202Q643.79065 257.7414 643.79065 259.4289Q643.79065 261.0539 642.9938 261.94452Q642.1969 262.81952 641.0094 262.81952Q639.8375 262.81952 639.0563 261.94452Q638.275 261.06952 638.275 259.31952ZM641.04065 257.10077Q640.4469 257.10077 640.0563 257.6164Q639.66565 258.1164 639.66565 259.4914Q639.66565 260.71014 640.0563 261.22577Q640.4469 261.7414 641.025 261.7414Q641.6344 261.7414 642.025 261.22577Q642.41565 260.71014 642.41565 259.3664Q642.41565 258.1164 642.025 257.6164Q641.6344 257.10077 641.04065 257.10077Z" fill-rule="nonzero"/><path stroke="#757575" stroke-width="1.0" stroke-linecap="butt" d="M644.9 243.85077L546.5333 243.85077L528.30817 243.85077" fill-rule="nonzero"/><path fill="#9e9e9e" d="M530.30817 243.85077C530.30817 242.7462 529.4127 241.85077 528.30817 241.85077C527.20355 241.85077 526.30817 242.7462 526.30817 243.85077C526.30817 244.95534 527.20355 245.85077 528.30817 245.85077C529.4127 245.85077 530.30817 244.95534 530.30817 243.85077" fill-rule="nonzero"/><path fill="#757575" d="M124.5 44.1L124.5 29.787498L127.390625 29.787498L127.390625 36.146873L133.21875 29.787498L137.10938 29.787498L131.71875 35.365623L137.40625 44.1L133.67188 44.1L129.73438 37.38125L127.390625 39.771873L127.390625 44.1L124.5 44.1ZM138.4375 32.31875L138.4375 29.787498L141.1875 29.787498L141.1875 32.31875L138.4375 32.31875ZM138.4375 44.1L138.4375 33.725L141.1875 33.725L141.1875 44.1L138.4375 44.1ZM144.4375 44.1L144.4375 29.787498L147.1875 29.787498L147.1875 44.1L144.4375 44.1ZM149.79688 38.771873Q149.79688 37.396873 150.46875 36.115623Q151.15625 34.834373 152.39062 34.1625Q153.625 33.490623 155.14062 33.490623Q157.5 33.490623 159.0 35.021873Q160.5 36.553123 160.5 38.88125Q160.5 41.240623 158.98438 42.7875Q157.46875 44.334373 155.15625 44.334373Q153.73438 44.334373 152.4375 43.69375Q151.15625 43.0375 150.46875 41.803123Q149.79688 40.553123 149.79688 38.771873ZM152.60938 38.9125Q152.60938 40.459373 153.34375 41.2875Q154.07812 42.1 155.15625 42.1Q156.23438 42.1 156.95312 41.2875Q157.6875 40.459373 157.6875 38.896873Q157.6875 37.365623 156.95312 36.553123Q156.23438 35.725 155.15625 35.725Q154.07812 35.725 153.34375 36.553123Q152.60938 37.365623 152.60938 38.9125ZM162.3125 44.1L162.3125 29.787498L165.0625 29.787498L165.0625 34.94375Q166.32812 33.490623 168.07812 33.490623Q169.96875 33.490623 171.20312 34.865623Q172.45312 36.240623 172.45312 38.803123Q172.45312 41.459373 171.1875 42.896873Q169.92188 44.334373 168.10938 44.334373Q167.21875 44.334373 166.35938 43.896873Q165.5 43.44375 164.875 42.56875L164.875 44.1L162.3125 44.1ZM165.04688 38.69375Q165.04688 40.303123 165.54688 41.06875Q166.26562 42.1625 167.45312 42.1625Q168.35938 42.1625 169.0 41.396873Q169.64062 40.615623 169.64062 38.94375Q169.64062 37.1625 168.98438 36.38125Q168.34375 35.6 167.34375 35.6Q166.35938 35.6 165.70312 36.365623Q165.04688 37.13125 165.04688 38.69375ZM173.14062 33.725L176.0625 33.725L178.53125 41.084373L180.95312 33.725L183.79688 33.725L180.14062 43.709373L179.48438 45.521873Q179.125 46.428123 178.79688 46.896873Q178.46875 47.38125 178.04688 47.678123Q177.625 47.975 177.0 48.13125Q176.375 48.303123 175.59375 48.303123Q174.8125 48.303123 174.04688 48.146873L173.79688 45.990623Q174.45312 46.115623 174.96875 46.115623Q175.92188 46.115623 176.375 45.553123Q176.84375 45.00625 177.07812 44.13125L173.14062 33.725ZM190.1875 33.725L190.1875 35.9125L188.3125 35.9125L188.3125 40.1Q188.3125 41.365623 188.35938 41.584373Q188.42188 41.7875 188.60938 41.928123Q188.8125 42.053123 189.07812 42.053123Q189.45312 42.053123 190.1875 41.7875L190.42188 43.928123Q189.45312 44.334373 188.25 44.334373Q187.5 44.334373 186.90625 44.084373Q186.3125 43.834373 186.03125 43.44375Q185.76562 43.0375 185.65625 42.365623Q185.5625 41.896873 185.5625 40.44375L185.5625 35.9125L184.29688 35.9125L184.29688 33.725L185.5625 33.725L185.5625 31.662498L188.3125 30.068748L188.3125 33.725L190.1875 33.725ZM198.4375 40.803123L201.17188 41.25625Q200.65625 42.75625 199.51562 43.553123Q198.375 44.334373 196.67188 44.334373Q193.95312 44.334373 192.65625 42.56875Q191.64062 41.146873 191.64062 38.990623Q191.64062 36.4125 192.98438 34.959373Q194.32812 33.490623 196.39062 33.490623Q198.70312 33.490623 200.03125 35.021873Q201.375 36.553123 201.32812 39.709373L194.45312 39.709373Q194.48438 40.928123 195.10938 41.615623Q195.75 42.2875 196.6875 42.2875Q197.34375 42.2875 197.78125 41.94375Q198.21875 41.584373 198.4375 40.803123ZM198.59375 38.021873Q198.5625 36.834373 197.96875 36.225Q197.39062 35.6 196.5625 35.6Q195.65625 35.6 195.07812 36.240623Q194.48438 36.896873 194.5 38.021873L198.59375 38.021873ZM202.46875 41.146873L205.21875 40.725Q205.40625 41.521873 205.9375 41.94375Q206.46875 42.35 207.4375 42.35Q208.5 42.35 209.04688 41.959373Q209.40625 41.69375 209.40625 41.225Q209.40625 40.9125 209.20312 40.709373Q209.0 40.521873 208.29688 40.35Q204.96875 39.615623 204.07812 39.00625Q202.84375 38.178123 202.84375 36.678123Q202.84375 35.334373 203.90625 34.4125Q204.98438 33.490623 207.21875 33.490623Q209.34375 33.490623 210.375 34.19375Q211.42188 34.88125 211.8125 36.240623L209.21875 36.709373Q209.04688 36.115623 208.57812 35.7875Q208.125 35.459373 207.26562 35.459373Q206.1875 35.459373 205.71875 35.771873Q205.40625 35.990623 205.40625 36.31875Q205.40625 36.615623 205.67188 36.81875Q206.04688 37.1 208.23438 37.6Q210.42188 38.1 211.29688 38.81875Q212.15625 39.553123 212.15625 40.85Q212.15625 42.2875 210.96875 43.31875Q209.78125 44.334373 207.4375 44.334373Q205.32812 44.334373 204.07812 43.475Q202.84375 42.615623 202.46875 41.146873ZM220.42188 44.1L220.42188 29.787498L224.75 29.787498L227.34375 39.553123L229.90625 29.787498L234.25 29.787498L234.25 44.1L231.5625 44.1L231.5625 32.834373L228.71875 44.1L225.9375 44.1L223.10938 32.834373L223.10938 44.1L220.42188 44.1ZM236.79688 38.771873Q236.79688 37.396873 237.46875 36.115623Q238.15625 34.834373 239.39062 34.1625Q240.625 33.490623 242.14062 33.490623Q244.5 33.490623 246.0 35.021873Q247.5 36.553123 247.5 38.88125Q247.5 41.240623 245.98438 42.7875Q244.46875 44.334373 242.15625 44.334373Q240.73438 44.334373 239.4375 43.69375Q238.15625 43.0375 237.46875 41.803123Q236.79688 40.553123 236.79688 38.771873ZM239.60938 38.9125Q239.60938 40.459373 240.34375 41.2875Q241.07812 42.1 242.15625 42.1Q243.23438 42.1 243.95312 41.2875Q244.6875 40.459373 244.6875 38.896873Q244.6875 37.365623 243.95312 36.553123Q243.23438 35.725 242.15625 35.725Q241.07812 35.725 240.34375 36.553123Q239.60938 37.365623 239.60938 38.9125ZM252.28125 44.1L248.10938 33.725L250.98438 33.725L252.9375 39.021873L253.51562 40.7875Q253.73438 40.115623 253.79688 39.896873Q253.92188 39.459373 254.07812 39.021873L256.0625 33.725L258.875 33.725L254.76562 44.1L252.28125 44.1ZM266.4375 40.803123L269.17188 41.25625Q268.65625 42.75625 267.51562 43.553123Q266.375 44.334373 264.67188 44.334373Q261.95312 44.334373 260.65625 42.56875Q259.64062 41.146873 259.64062 38.990623Q259.64062 36.4125 260.98438 34.959373Q262.32812 33.490623 264.39062 33.490623Q266.70312 33.490623 268.03125 35.021873Q269.375 36.553123 269.32812 39.709373L262.45312 39.709373Q262.48438 40.928123 263.10938 41.615623Q263.75 42.2875 264.6875 42.2875Q265.34375 42.2875 265.78125 41.94375Q266.21875 41.584373 266.4375 40.803123ZM266.59375 38.021873Q266.5625 36.834373 265.96875 36.225Q265.39062 35.6 264.5625 35.6Q263.65625 35.6 263.07812 36.240623Q262.48438 36.896873 262.5 38.021873L266.59375 38.021873ZM280.95312 44.1L278.40625 44.1L278.40625 42.56875Q277.76562 43.459373 276.89062 43.896873Q276.03125 44.334373 275.15625 44.334373Q273.375 44.334373 272.09375 42.896873Q270.82812 41.459373 270.82812 38.88125Q270.82812 36.240623 272.0625 34.865623Q273.29688 33.490623 275.20312 33.490623Q276.9375 33.490623 278.20312 34.94375L278.20312 29.787498L280.95312 29.787498L280.95312 44.1ZM273.625 38.69375Q273.625 40.35 274.07812 41.084373Q274.75 42.1625 275.9375 42.1625Q276.89062 42.1625 277.54688 41.365623Q278.21875 40.553123 278.21875 38.959373Q278.21875 37.1625 277.5625 36.38125Q276.92188 35.6 275.92188 35.6Q274.9375 35.6 274.28125 36.38125Q273.625 37.146873 273.625 38.69375ZM292.28125 44.1L288.10938 33.725L290.98438 33.725L292.9375 39.021873L293.51562 40.7875Q293.73438 40.115623 293.79688 39.896873Q293.92188 39.459373 294.07812 39.021873L296.0625 33.725L298.875 33.725L294.76562 44.1L292.28125 44.1ZM300.4375 32.31875L300.4375 29.787498L303.1875 29.787498L303.1875 32.31875L300.4375 32.31875ZM300.4375 44.1L300.4375 33.725L303.1875 33.725L303.1875 44.1L300.4375 44.1ZM308.48438 36.896873L306.0 36.44375Q306.42188 34.94375 307.4375 34.225Q308.46875 33.490623 310.48438 33.490623Q312.32812 33.490623 313.21875 33.928123Q314.125 34.365623 314.48438 35.0375Q314.85938 35.69375 314.85938 37.490623L314.82812 40.69375Q314.82812 42.053123 314.95312 42.709373Q315.09375 43.35 315.45312 44.1L312.73438 44.1Q312.625 43.81875 312.46875 43.2875Q312.40625 43.0375 312.375 42.959373Q311.67188 43.646873 310.85938 43.990623Q310.0625 44.334373 309.15625 44.334373Q307.5625 44.334373 306.64062 43.475Q305.71875 42.6 305.71875 41.271873Q305.71875 40.38125 306.125 39.69375Q306.54688 39.00625 307.29688 38.646873Q308.0625 38.271873 309.5 38.00625Q311.42188 37.646873 312.15625 37.334373L312.15625 37.053123Q312.15625 36.271873 311.76562 35.94375Q311.375 35.6 310.29688 35.6Q309.5625 35.6 309.14062 35.88125Q308.73438 36.1625 308.48438 36.896873ZM312.15625 39.115623Q311.625 39.2875 310.48438 39.5375Q309.34375 39.7875 309.0 40.021873Q308.45312 40.396873 308.45312 40.990623Q308.45312 41.553123 308.875 41.975Q309.3125 42.396873 309.98438 42.396873Q310.71875 42.396873 311.39062 41.9125Q311.89062 41.5375 312.04688 41.00625Q312.15625 40.646873 312.15625 39.6625L312.15625 39.115623ZM328.1875 33.725L328.1875 35.9125L326.3125 35.9125L326.3125 40.1Q326.3125 41.365623 326.35938 41.584373Q326.42188 41.7875 326.60938 41.928123Q326.8125 42.053123 327.07812 42.053123Q327.45312 42.053123 328.1875 41.7875L328.42188 43.928123Q327.45312 44.334373 326.25 44.334373Q325.5 44.334373 324.90625 44.084373Q324.3125 43.834373 324.03125 43.44375Q323.76562 43.0375 323.65625 42.365623Q323.5625 41.896873 323.5625 40.44375L323.5625 35.9125L322.29688 35.9125L322.29688 33.725L323.5625 33.725L323.5625 31.662498L326.3125 30.068748L326.3125 33.725L328.1875 33.725ZM333.17188 29.787498L333.17188 35.053123Q334.5 33.490623 336.34375 33.490623Q337.29688 33.490623 338.04688 33.85Q338.8125 34.19375 339.20312 34.740623Q339.59375 35.2875 339.73438 35.959373Q339.875 36.615623 339.875 38.021873L339.875 44.1L337.125 44.1L337.125 38.615623Q337.125 36.990623 336.96875 36.553123Q336.8125 36.115623 336.40625 35.865623Q336.01562 35.6 335.42188 35.6Q334.75 35.6 334.20312 35.928123Q333.67188 36.25625 333.42188 36.928123Q333.17188 37.6 333.17188 38.896873L333.17188 44.1L330.42188 44.1L330.42188 29.787498L333.17188 29.787498ZM348.4375 40.803123L351.17188 41.25625Q350.65625 42.75625 349.51562 43.553123Q348.375 44.334373 346.67188 44.334373Q343.95312 44.334373 342.65625 42.56875Q341.64062 41.146873 341.64062 38.990623Q341.64062 36.4125 342.98438 34.959373Q344.32812 33.490623 346.39062 33.490623Q348.70312 33.490623 350.03125 35.021873Q351.375 36.553123 351.32812 39.709373L344.45312 39.709373Q344.48438 40.928123 345.10938 41.615623Q345.75 42.2875 346.6875 42.2875Q347.34375 42.2875 347.78125 41.94375Q348.21875 41.584373 348.4375 40.803123ZM348.59375 38.021873Q348.5625 36.834373 347.96875 36.225Q347.39062 35.6 346.5625 35.6Q345.65625 35.6 345.07812 36.240623Q344.48438 36.896873 344.5 38.021873L348.59375 38.021873ZM359.375 44.1L359.375 29.787498L362.26562 29.787498L362.26562 44.1L359.375 44.1ZM374.875 44.1L372.125 44.1L372.125 38.803123Q372.125 37.13125 371.95312 36.646873Q371.78125 36.146873 371.375 35.88125Q370.98438 35.6 370.42188 35.6Q369.71875 35.6 369.14062 35.990623Q368.57812 36.38125 368.35938 37.021873Q368.15625 37.6625 368.15625 39.396873L368.15625 44.1L365.42188 44.1L365.42188 33.725L367.96875 33.725L367.96875 35.25625Q369.32812 33.490623 371.39062 33.490623Q372.29688 33.490623 373.04688 33.81875Q373.79688 34.146873 374.17188 34.6625Q374.5625 35.1625 374.71875 35.81875Q374.875 36.459373 374.875 37.646873L374.875 44.1ZM382.1875 33.725L382.1875 35.9125L380.3125 35.9125L380.3125 40.1Q380.3125 41.365623 380.35938 41.584373Q380.42188 41.7875 380.60938 41.928123Q380.8125 42.053123 381.07812 42.053123Q381.45312 42.053123 382.1875 41.7875L382.42188 43.928123Q381.45312 44.334373 380.25 44.334373Q379.5 44.334373 378.90625 44.084373Q378.3125 43.834373 378.03125 43.44375Q377.76562 43.0375 377.65625 42.365623Q377.5625 41.896873 377.5625 40.44375L377.5625 35.9125L376.29688 35.9125L376.29688 33.725L377.5625 33.725L377.5625 31.662498L380.3125 30.068748L380.3125 33.725L382.1875 33.725ZM390.4375 40.803123L393.17188 41.25625Q392.65625 42.75625 391.51562 43.553123Q390.375 44.334373 388.67188 44.334373Q385.95312 44.334373 384.65625 42.56875Q383.64062 41.146873 383.64062 38.990623Q383.64062 36.4125 384.98438 34.959373Q386.32812 33.490623 388.39062 33.490623Q390.70312 33.490623 392.03125 35.021873Q393.375 36.553123 393.32812 39.709373L386.45312 39.709373Q386.48438 40.928123 387.10938 41.615623Q387.75 42.2875 388.6875 42.2875Q389.34375 42.2875 389.78125 41.94375Q390.21875 41.584373 390.4375 40.803123ZM390.59375 38.021873Q390.5625 36.834373 389.96875 36.225Q389.39062 35.6 388.5625 35.6Q387.65625 35.6 387.07812 36.240623Q386.48438 36.896873 386.5 38.021873L390.59375 38.021873ZM398.0625 44.1L395.3125 44.1L395.3125 33.725L397.875 33.725L397.875 35.209373Q398.51562 34.1625 399.03125 33.834373Q399.5625 33.490623 400.23438 33.490623Q401.17188 33.490623 402.03125 34.00625L401.1875 36.396873Q400.5 35.959373 399.90625 35.959373Q399.32812 35.959373 398.92188 36.271873Q398.51562 36.584373 398.28125 37.428123Q398.0625 38.25625 398.0625 40.896873L398.0625 44.1ZM412.875 44.1L410.125 44.1L410.125 38.803123Q410.125 37.13125 409.95312 36.646873Q409.78125 36.146873 409.375 35.88125Q408.98438 35.6 408.42188 35.6Q407.71875 35.6 407.14062 35.990623Q406.57812 36.38125 406.35938 37.021873Q406.15625 37.6625 406.15625 39.396873L406.15625 44.1L403.42188 44.1L403.42188 33.725L405.96875 33.725L405.96875 35.25625Q407.32812 33.490623 409.39062 33.490623Q410.29688 33.490623 411.04688 33.81875Q411.79688 34.146873 412.17188 34.6625Q412.5625 35.1625 412.71875 35.81875Q412.875 36.459373 412.875 37.646873L412.875 44.1ZM421.4375 40.803123L424.17188 41.25625Q423.65625 42.75625 422.51562 43.553123Q421.375 44.334373 419.67188 44.334373Q416.95312 44.334373 415.65625 42.56875Q414.64062 41.146873 414.64062 38.990623Q414.64062 36.4125 415.98438 34.959373Q417.32812 33.490623 419.39062 33.490623Q421.70312 33.490623 423.03125 35.021873Q424.375 36.553123 424.32812 39.709373L417.45312 39.709373Q417.48438 40.928123 418.10938 41.615623Q418.75 42.2875 419.6875 42.2875Q420.34375 42.2875 420.78125 41.94375Q421.21875 41.584373 421.4375 40.803123ZM421.59375 38.021873Q421.5625 36.834373 420.96875 36.225Q420.39062 35.6 419.5625 35.6Q418.65625 35.6 418.07812 36.240623Q417.48438 36.896873 417.5 38.021873L421.59375 38.021873ZM431.1875 33.725L431.1875 35.9125L429.3125 35.9125L429.3125 40.1Q429.3125 41.365623 429.35938 41.584373Q429.42188 41.7875 429.60938 41.928123Q429.8125 42.053123 430.07812 42.053123Q430.45312 42.053123 431.1875 41.7875L431.42188 43.928123Q430.45312 44.334373 429.25 44.334373Q428.5 44.334373 427.90625 44.084373Q427.3125 43.834373 427.03125 43.44375Q426.76562 43.0375 426.65625 42.365623Q426.5625 41.896873 426.5625 40.44375L426.5625 35.9125L425.29688 35.9125L425.29688 33.725L426.5625 33.725L426.5625 31.662498L429.3125 30.068748L429.3125 33.725L431.1875 33.725ZM443.98438 48.303123L442.10938 48.303123Q440.60938 46.053123 439.82812 43.63125Q439.04688 41.19375 439.04688 38.9125Q439.04688 36.084373 440.01562 33.56875Q440.85938 31.381248 442.14062 29.537498L444.01562 29.537498Q442.67188 32.490623 442.17188 34.56875Q441.67188 36.646873 441.67188 38.975Q441.67188 40.56875 441.96875 42.25625Q442.26562 43.928123 442.78125 45.44375Q443.125 46.44375 443.98438 48.303123ZM455.125 41.553123L455.125 44.1L445.5 44.1Q445.65625 42.646873 446.4375 41.365623Q447.21875 40.06875 449.51562 37.928123Q451.375 36.19375 451.79688 35.584373Q452.35938 34.740623 452.35938 33.896873Q452.35938 32.990623 451.85938 32.50625Q451.375 32.00625 450.51562 32.00625Q449.65625 32.00625 449.14062 32.521873Q448.64062 33.0375 448.5625 34.240623L445.82812 33.959373Q446.0625 31.693748 447.34375 30.709373Q448.64062 29.724998 450.57812 29.724998Q452.70312 29.724998 453.90625 30.865623Q455.125 32.00625 455.125 33.709373Q455.125 34.678123 454.76562 35.553123Q454.42188 36.428123 453.67188 37.38125Q453.17188 38.021873 451.875 39.209373Q450.57812 40.396873 450.23438 40.7875Q449.89062 41.178123 449.67188 41.553123L455.125 41.553123ZM461.48438 29.724998Q463.5625 29.724998 464.73438 31.209373Q466.14062 32.959373 466.14062 37.0375Q466.14062 41.1 464.73438 42.88125Q463.5625 44.35 461.48438 44.35Q459.40625 44.35 458.125 42.740623Q456.84375 41.13125 456.84375 37.00625Q456.84375 32.959373 458.25 31.193748Q459.40625 29.724998 461.48438 29.724998ZM461.48438 32.00625Q460.98438 32.00625 460.59375 32.31875Q460.20312 32.63125 460.0 33.459373Q459.71875 34.521873 459.71875 37.0375Q459.71875 39.553123 459.96875 40.50625Q460.21875 41.44375 460.59375 41.75625Q460.98438 42.06875 461.48438 42.06875Q461.98438 42.06875 462.375 41.75625Q462.76562 41.428123 462.98438 40.615623Q463.26562 39.553123 463.26562 37.0375Q463.26562 34.521873 463.01562 33.584373Q462.76562 32.63125 462.375 32.31875Q461.98438 32.00625 461.48438 32.00625ZM474.875 44.1L472.125 44.1L472.125 33.75625Q470.625 35.1625 468.57812 35.834373L468.57812 33.35Q469.65625 32.990623 470.90625 32.021873Q472.17188 31.037498 472.64062 29.724998L474.875 29.724998L474.875 44.1ZM488.14062 33.2875L485.48438 33.584373Q485.39062 32.75625 484.98438 32.365623Q484.57812 31.974998 483.92188 31.974998Q483.04688 31.974998 482.4375 32.75625Q481.84375 33.5375 481.6875 36.00625Q482.71875 34.803123 484.23438 34.803123Q485.95312 34.803123 487.17188 36.115623Q488.40625 37.4125 488.40625 39.490623Q488.40625 41.69375 487.10938 43.021873Q485.82812 44.35 483.8125 44.35Q481.64062 44.35 480.23438 42.6625Q478.84375 40.975 478.84375 37.13125Q478.84375 33.19375 480.29688 31.459373Q481.76562 29.724998 484.07812 29.724998Q485.71875 29.724998 486.78125 30.646873Q487.85938 31.553123 488.14062 33.2875ZM481.92188 39.271873Q481.92188 40.615623 482.53125 41.35Q483.15625 42.06875 483.95312 42.06875Q484.70312 42.06875 485.20312 41.475Q485.71875 40.88125 485.71875 39.521873Q485.71875 38.115623 485.17188 37.475Q484.625 36.81875 483.8125 36.81875Q483.01562 36.81875 482.46875 37.44375Q481.92188 38.06875 481.92188 39.271873ZM490.125 40.2875L490.125 37.5375L495.51562 37.5375L495.51562 40.2875L490.125 40.2875ZM506.125 41.553123L506.125 44.1L496.5 44.1Q496.65625 42.646873 497.4375 41.365623Q498.21875 40.06875 500.51562 37.928123Q502.375 36.19375 502.79688 35.584373Q503.35938 34.740623 503.35938 33.896873Q503.35938 32.990623 502.85938 32.50625Q502.375 32.00625 501.51562 32.00625Q500.65625 32.00625 500.14062 32.521873Q499.64062 33.0375 499.5625 34.240623L496.82812 33.959373Q497.0625 31.693748 498.34375 30.709373Q499.64062 29.724998 501.57812 29.724998Q503.70312 29.724998 504.90625 30.865623Q506.125 32.00625 506.125 33.709373Q506.125 34.678123 505.76562 35.553123Q505.42188 36.428123 504.67188 37.38125Q504.17188 38.021873 502.875 39.209373Q501.57812 40.396873 501.23438 40.7875Q500.89062 41.178123 500.67188 41.553123L506.125 41.553123ZM512.4844 29.724998Q514.5625 29.724998 515.7344 31.209373Q517.1406 32.959373 517.1406 37.0375Q517.1406 41.1 515.7344 42.88125Q514.5625 44.35 512.4844 44.35Q510.40625 44.35 509.125 42.740623Q507.84375 41.13125 507.84375 37.00625Q507.84375 32.959373 509.25 31.193748Q510.40625 29.724998 512.4844 29.724998ZM512.4844 32.00625Q511.98438 32.00625 511.59375 32.31875Q511.20312 32.63125 511.0 33.459373Q510.71875 34.521873 510.71875 37.0375Q510.71875 39.553123 510.96875 40.50625Q511.21875 41.44375 511.59375 41.75625Q511.98438 42.06875 512.4844 42.06875Q512.9844 42.06875 513.375 41.75625Q513.7656 41.428123 513.9844 40.615623Q514.2656 39.553123 514.2656 37.0375Q514.2656 34.521873 514.0156 33.584373Q513.7656 32.63125 513.375 32.31875Q512.9844 32.00625 512.4844 32.00625ZM528.125 41.553123L528.125 44.1L518.5 44.1Q518.65625 42.646873 519.4375 41.365623Q520.21875 40.06875 522.5156 37.928123Q524.375 36.19375 524.7969 35.584373Q525.3594 34.740623 525.3594 33.896873Q525.3594 32.990623 524.8594 32.50625Q524.375 32.00625 523.5156 32.00625Q522.65625 32.00625 522.1406 32.521873Q521.6406 33.0375 521.5625 34.240623L518.8281 33.959373Q519.0625 31.693748 520.34375 30.709373Q521.6406 29.724998 523.5781 29.724998Q525.7031 29.724998 526.90625 30.865623Q528.125 32.00625 528.125 33.709373Q528.125 34.678123 527.7656 35.553123Q527.4219 36.428123 526.6719 37.38125Q526.1719 38.021873 524.875 39.209373Q523.5781 40.396873 523.2344 40.7875Q522.8906 41.178123 522.6719 41.553123L528.125 41.553123ZM534.4844 29.724998Q536.5625 29.724998 537.7344 31.209373Q539.1406 32.959373 539.1406 37.0375Q539.1406 41.1 537.7344 42.88125Q536.5625 44.35 534.4844 44.35Q532.40625 44.35 531.125 42.740623Q529.84375 41.13125 529.84375 37.00625Q529.84375 32.959373 531.25 31.193748Q532.40625 29.724998 534.4844 29.724998ZM534.4844 32.00625Q533.9844 32.00625 533.59375 32.31875Q533.2031 32.63125 533.0 33.459373Q532.71875 34.521873 532.71875 37.0375Q532.71875 39.553123 532.96875 40.50625Q533.21875 41.44375 533.59375 41.75625Q533.9844 42.06875 534.4844 42.06875Q534.9844 42.06875 535.375 41.75625Q535.7656 41.428123 535.9844 40.615623Q536.2656 39.553123 536.2656 37.0375Q536.2656 34.521873 536.0156 33.584373Q535.7656 32.63125 535.375 32.31875Q534.9844 32.00625 534.4844 32.00625ZM540.6719 48.303123Q541.4844 46.56875 541.8125 45.63125Q542.15625 44.709373 542.4375 43.50625Q542.71875 42.2875 542.84375 41.209373Q542.9844 40.115623 542.9844 38.975Q542.9844 36.646873 542.4844 34.56875Q542.0 32.490623 540.65625 29.537498L542.5156 29.537498Q544.0 31.631248 544.8125 33.990623Q545.625 36.35 545.625 38.771873Q545.625 40.803123 544.9844 43.146873Q544.25 45.75625 542.5625 48.303123L540.6719 48.303123Z" fill-rule="nonzero"/></svg>