<?xml version="1.0" encoding="UTF-8" standalone="no"?>
<!-- Generator: Adobe Illustrator 19.0.0, SVG Export Plug-In . SVG Version: 6.00 Build 0)  -->

<svg
   xmlns:dc="http://purl.org/dc/elements/1.1/"
   xmlns:cc="http://creativecommons.org/ns#"
   xmlns:rdf="http://www.w3.org/1999/02/22-rdf-syntax-ns#"
   xmlns:svg="http://www.w3.org/2000/svg"
   xmlns="http://www.w3.org/2000/svg"
   xmlns:sodipodi="http://sodipodi.sourceforge.net/DTD/sodipodi-0.dtd"
   xmlns:inkscape="http://www.inkscape.org/namespaces/inkscape"
   version="1.1"
   id="Layer_1"
   x="0px"
   y="0px"
   viewBox="0 0 286.054 286.054"
   style="enable-background:new 0 0 286.054 286.054;"
   xml:space="preserve"
   sodipodi:docname="play.svg"
   inkscape:version="0.92.4 (unknown)"><metadata
   id="metadata41"><rdf:RDF><cc:Work
       rdf:about=""><dc:format>image/svg+xml</dc:format><dc:type
         rdf:resource="http://purl.org/dc/dcmitype/StillImage" /><dc:title></dc:title></cc:Work></rdf:RDF></metadata><defs
   id="defs39" /><sodipodi:namedview
   pagecolor="#ffffff"
   bordercolor="#666666"
   borderopacity="1"
   objecttolerance="10"
   gridtolerance="10"
   guidetolerance="10"
   inkscape:pageopacity="0"
   inkscape:pageshadow="2"
   inkscape:window-width="1208"
   inkscape:window-height="768"
   id="namedview37"
   showgrid="false"
   inkscape:zoom="1.1667532"
   inkscape:cx="104.99005"
   inkscape:cy="155.36232"
   inkscape:window-x="0"
   inkscape:window-y="0"
   inkscape:window-maximized="0"
   inkscape:current-layer="Layer_1"
   showborder="false"
   inkscape:pagecheckerboard="true" />
<g
   id="g4"
   style="fill:#ffffff">
	<path
   style="fill:#ffffff"
   d="M143.027,0.004C64.04,0.004,0,64.036,0,143.022c0,78.996,64.04,143.027,143.027,143.027   s143.027-64.031,143.027-143.027C286.054,64.045,222.014,0.004,143.027,0.004z M143.027,259.232   c-64.183,0-116.209-52.026-116.209-116.209s52.026-116.21,116.209-116.21s116.209,52.026,116.209,116.209   S207.21,259.232,143.027,259.232z M200.863,136.434l-81.856-45.581c-5.962-3.638-11.827-0.706-11.827,6.526v91.367   c0,7.223,5.864,10.173,11.827,6.517l81.722-44.91C208.31,146.035,205.548,139.071,200.863,136.434z"
   id="path2" />
</g>
<g
   id="g6">
</g>
<g
   id="g8">
</g>
<g
   id="g10">
</g>
<g
   id="g12">
</g>
<g
   id="g14">
</g>
<g
   id="g16">
</g>
<g
   id="g18">
</g>
<g
   id="g20">
</g>
<g
   id="g22">
</g>
<g
   id="g24">
</g>
<g
   id="g26">
</g>
<g
   id="g28">
</g>
<g
   id="g30">
</g>
<g
   id="g32">
</g>
<g
   id="g34">
</g>
</svg>