<svg id="Layer_5" enable-background="new 0 0 64 64" height="512" viewBox="0 0 64 64" width="512" xmlns="http://www.w3.org/2000/svg"><g><g><g><path d="m49 60c0 .55-.22 1.05-.59 1.41-.36.37-.86.59-1.41.59h-30c-1.1 0-2-.9-2-2s.45-2.1 1.17-2.83c.73-.72 1.73-1.17 2.83-1.17h3 20 3c2.21 0 4 1.79 4 4z" fill="#969faa"/></g><g><path d="m42 56h-20c1.87-1.25 3-3.35 3-5.61v-.39h14v.39c0 2.26 1.13 4.36 3 5.61z" fill="#aab2bd"/></g><g><path d="m58 8h-52c-2.21 0-4 1.79-4 4v34c0 2.21 1.79 4 4 4h19 14 19c2.21 0 4-1.79 4-4v-34c0-2.21-1.79-4-4-4z" fill="#ccd1d9"/></g><g><path d="m10 14v6 7.07 6.93 8h-3c-.55 0-1-.45-1-1v-28c0-.55.45-1 1-1h3z" fill="#69d6f4"/></g><g><path d="m58 13v28c0 .55-.45 1-1 1h-3v-28-2h3c.55 0 1 .45 1 1z" fill="#69d6f4"/></g><g><path d="m54 12v2h-44v-2-4-4c0-1.1.9-2 2-2h40c1.1 0 2 .9 2 2v4z" fill="#b4dd7f"/></g><g><path d="m14 6h4v4h-4z" fill="#e6e9ed"/></g><g><path d="m22 6h4v4h-4z" fill="#e6e9ed"/></g><g><path d="m30 6h4v4h-4z" fill="#e6e9ed"/></g><g><path d="m10 14h44v28h-44z" fill="#e6e9ed"/></g><g><path d="m45.53 18.85 4.47 7.15h-12l4.47-7.15c.33-.53.91-.85 1.53-.85s1.2.32 1.53.85z" fill="#aab2bd"/></g><g><path d="m38 26h12v16h-12z" fill="#ff826e"/></g><g><path d="m28 31v6l-2.57.65c-.2.64-.47 1.25-.77 1.84l1.39 2.51h-12.05c4.42 0 8-3.58 8-8s-3.58-8-8-8c-1.46 0-2.82.39-4 1.07v-7.07h1 6l.65 2.57c.64.2 1.25.47 1.84.77l2.29-1.36 4.24 4.24-1.36 2.29c.3.59.57 1.2.77 1.84z" fill="#ffc729"/></g><g><path d="m14 26c4.42 0 8 3.58 8 8s-3.58 8-8 8h-4v-8c0 2.21 1.79 4 4 4s4-1.79 4-4-1.79-4-4-4-4 1.79-4 4v-6.93c1.18-.68 2.54-1.07 4-1.07z" fill="#fcd770"/></g></g><g><g><path d="m15 45h2v2h-2z"/><path d="m7 45h2v2h-2z"/><path d="m11 45h2v2h-2z"/><path d="m58 7h-3v-3c0-1.654-1.346-3-3-3h-40c-1.654 0-3 1.346-3 3v3h-3c-2.757 0-5 2.243-5 5v34c0 2.757 2.243 5 5 5h17.962c-.168 1.595-.997 3.041-2.296 4h-2.666c-2.757 0-5 2.243-5 5 0 1.654 1.346 3 3 3h30c1.654 0 3-1.346 3-3 0-2.757-2.243-5-5-5h-2.666c-1.299-.959-2.128-2.405-2.296-4h17.962c2.757 0 5-2.243 5-5v-34c0-2.757-2.243-5-5-5zm-49 34h-2v-28h2zm2-26h42v26h-42zm44-2h2v28h-2zm-43-10h40c.552 0 1 .449 1 1v9h-42v-9c0-.551.448-1 1-1zm36 57c0 .551-.448 1-1 1h-30c-.552 0-1-.449-1-1 0-1.654 1.346-3 3-3h26c1.654 0 3 1.346 3 3zm-8.47-5h-15.06c.858-1.155 1.378-2.536 1.492-4h12.075c.115 1.464.635 2.845 1.493 4zm21.47-9c0 1.654-1.346 3-3 3h-52c-1.654 0-3-1.346-3-3v-34c0-1.654 1.346-3 3-3h3v2h-2c-1.103 0-2 .897-2 2v28c0 1.103.897 2 2 2h50c1.103 0 2-.897 2-2v-28c0-1.103-.897-2-2-2h-2v-2h3c1.654 0 3 1.346 3 3z"/><path d="m19 5h-6v6h6zm-2 4h-2v-2h2z"/><path d="m27 5h-6v6h6zm-2 4h-2v-2h2z"/><path d="m35 5h-6v6h6zm-2 4h-2v-2h2z"/></g><g><path d="m25.18 42.485-1.653-2.977.247-.476c.288-.558.525-1.124.704-1.683l.168-.528 2.354-.598v-4.445l-2.354-.599-.168-.528c-.179-.559-.416-1.125-.704-1.683l-.256-.493 1.246-2.096-3.143-3.143-2.095 1.246-.492-.254c-.56-.289-1.126-.525-1.686-.704l-.528-.169-.597-2.355h-5.223v-2h6.777l.713 2.802c.318.119.639.252.956.4l2.489-1.48 5.342 5.342-1.479 2.489c.147.317.281.637.4.956l2.802.714v7.555l-2.802.713c-.121.325-.258.65-.409.974l1.139 2.051z"/></g><g><path d="m14 43v-2c3.859 0 7-3.14 7-7s-3.141-7-7-7c-1.231 0-2.441.324-3.5.936l-1.002-1.73c1.362-.789 2.919-1.206 4.502-1.206 4.963 0 9 4.038 9 9s-4.037 9-9 9z"/></g><g><path d="m14 39c-2.757 0-5-2.243-5-5s2.243-5 5-5 5 2.243 5 5-2.243 5-5 5zm0-8c-1.654 0-3 1.346-3 3s1.346 3 3 3 3-1.346 3-3-1.346-3-3-3z"/></g><g><path d="m51 42h-2v-15.713l-4.317-6.909c-.297-.473-1.068-.473-1.365 0l-4.318 6.909v15.713h-2v-16.287l4.622-7.395c.516-.825 1.405-1.318 2.378-1.318s1.862.493 2.378 1.318l4.622 7.395z"/></g><g><path d="m38 25h12v2h-12z"/></g><g><path d="m45 39h-2v-2h2zm0-4h-2v-2h2zm0-4h-2v-2h2z"/></g></g></g></svg>